<?xml version="1.0" encoding="utf-8"?>
<!-- Generator: Adobe Illustrator 24.2.3, SVG Export Plug-In . SVG Version: 6.00 Build 0)  -->
<svg version="1.1" id="Layer_1" xmlns:xodm="http://www.corel.com/coreldraw/odm/2003"
	 xmlns="http://www.w3.org/2000/svg" xmlns:xlink="http://www.w3.org/1999/xlink" x="0px" y="0px" viewBox="0 0 604.8 565"
	 style="enable-background:new 0 0 604.8 565;" xml:space="preserve">
<style type="text/css">
	.st0{fill-rule:evenodd;clip-rule:evenodd;fill:#FF700A;}
	.st1{fill-rule:evenodd;clip-rule:evenodd;fill:#111927;}
	.st2{fill-rule:evenodd;clip-rule:evenodd;fill:#68748E;}
	.st3{fill-rule:evenodd;clip-rule:evenodd;fill:#4F5D7A;}
	.st4{fill-rule:evenodd;clip-rule:evenodd;fill:#0261A3;}
	.st5{fill-rule:evenodd;clip-rule:evenodd;fill:#FFFFFF;}
	.st6{fill-rule:evenodd;clip-rule:evenodd;fill:#A2B2CB;}
	.st7{fill-rule:evenodd;clip-rule:evenodd;fill:#BD4C00;}
	.st8{fill-rule:evenodd;clip-rule:evenodd;fill:#A8B3CC;}
	.st9{fill-rule:evenodd;clip-rule:evenodd;fill:#A3B1CC;}
	.st10{fill-rule:evenodd;clip-rule:evenodd;fill:#A2B2CC;}
	.st11{fill-rule:evenodd;clip-rule:evenodd;fill:#A3B1CB;}
	.st12{fill-rule:evenodd;clip-rule:evenodd;fill:#0086FF;}
	.st13{fill-rule:evenodd;clip-rule:evenodd;fill:#1598F3;}
	.st14{fill-rule:evenodd;clip-rule:evenodd;fill:#FDFDF5;}
	.st15{fill-rule:evenodd;clip-rule:evenodd;fill:#4E5C79;}
	.st16{fill-rule:evenodd;clip-rule:evenodd;fill:#251D1B;}
	.st17{fill-rule:evenodd;clip-rule:evenodd;fill:#4D5A7A;}
	.st18{fill-rule:evenodd;clip-rule:evenodd;fill:#515A77;}
	.st19{fill-rule:evenodd;clip-rule:evenodd;fill:#FEFEFE;}
	.st20{fill-rule:evenodd;clip-rule:evenodd;fill:#B3B3B3;}
	.st21{fill-rule:evenodd;clip-rule:evenodd;fill:#8396B4;}
	.st22{fill-rule:evenodd;clip-rule:evenodd;fill:#FCFEFD;}
	.st23{fill-rule:evenodd;clip-rule:evenodd;fill:#BC4D00;}
	.st24{fill-rule:evenodd;clip-rule:evenodd;fill:#3BB1FF;}
	.st25{fill-rule:evenodd;clip-rule:evenodd;fill:#63C1FF;}
	.st26{fill-rule:evenodd;clip-rule:evenodd;fill:#BFE5FF;}
	.st27{fill:#FF700A;}
	.st28{fill:#FFFFFF;}
	.st29{fill:#A8B3CC;}
</style>
<g>
	<g id="Layer_x0020_1_2_">
		<g id="_2887644456224_1_">
			<path class="st0" d="M118.7,200.1L118.7,200.1l-0.3-0.4l-0.1-0.2l0,0c-0.8-1.2-1.5-2.4-1.9-3.8c-1-2.9-1.3-6.9-1.6-10
				c-0.2-1.9-0.3-4.5-0.7-6.4c-0.2-0.1-0.4-0.3-0.5-0.4c-4.8-0.9-9.5-1.8-14.3-2.7c-3.5-0.7-7-1.4-10.5-2.1c-3-0.7-6.7-1.3-9-3.5
				c-2-2-2.6-4.4-2.8-7.1c0-0.2,0-0.5,0-0.8c-0.7-0.5-1.4-0.9-2.1-1.4c-2.2-1.5-4.2-3.2-6.1-5.1c-5.7-5.8-9.1-12.8-10.5-20.8
				c-1.3-7.1-1.8-17.3,0.7-25.2c-0.8-1.1-1.6-2.2-2.2-3.2c-3-4.6-4.7-10.6-4.8-16.5c-4.1,1.6-12.7,5.1-16,4.8
				c-1.9-0.2-4.9-1.3-6.7-1.9c-3.3-1.1-6.6-2.3-9.8-3.4c-3.3-1.2-6.6-2.4-9.9-3.8c-3.5-1.4-7.4-3-8.9-6.8c-1.6-4.1-0.3-9.5,0.1-13.8
				c0.4-4.7,0.8-10.4,4.9-13.4c1.3-1,3.7-1.8,5.2-2.4c2.4-1,4.8-1.9,7.2-2.8c3.1-1.2,6.3-2.4,9.4-3.6c2.8-4,8.1-5,12.6-5.5
				c3.8-0.4,8.5-0.4,12.1,1.3c1.9-0.1,3.8-0.2,5.6-0.3c2.4-0.1,6.6-0.5,8.9-0.1c2.1,0.4,3.5,1.2,5.2,2c2.1,0.5,3.9,0.8,6.1,1.5
				c4.2,1.4,8.1,3.7,11.2,6.9c4.1,4.1,6.4,9.2,7.2,14.7c5.5,0.6,11.7,1.8,15,4.8c1.7,1.5,3.3,3.7,4.7,5.5c2.1,2.6,4.1,5.3,6.1,7.9
				c2,2.7,4,5.3,6,8c0.9,1.1,1.7,2.4,2.7,3.5c2.1,1.1,4.9,2.2,6.9,3c2.3,1,4.9,2.1,7.3,3c0.5-0.1,1-0.2,1.5-0.4
				c-1.1-2.5-1.9-5.3-2.2-8.4c-0.5-4.5,0.7-8.8,3.9-12.1c2.4-2.5,5.5-4,8.8-4.8c0-0.1-0.1-0.2-0.1-0.3c-2.3-5.3-2.8-10.9-0.6-16.3
				c4.9-12.3,17.1-14.2,28.5-11c3.3,0.9,6.3,2.8,8.7,5.4c1.9-3.8,5-7.3,9.1-8.8c3.6-1.3,7.5-0.2,11,0.8c3.9,1.1,7.7,2.2,11.6,3.1
				c1.7,0.4,5.2,1.1,8,1.4c0.6-2.1,1.1-4.3,1.9-6.4c2.2-6.7,5.1-13.4,9.1-19.3c3.8-5.6,8.5-10.6,14.5-13.8
				C271,2,288.5-0.9,302.4,0.1c13.9-1,31.4,2,43.5,8.4c6,3.2,10.8,8.2,14.5,13.8c3.9,5.9,6.8,12.6,9.1,19.3c0.7,2.2,1.3,4.3,1.9,6.4
				c2.8-0.3,6.3-1,8-1.4c3.9-0.9,7.8-2,11.6-3.1c3.5-1,7.4-2.1,11-0.8c4.2,1.5,7.4,5.3,9.2,9.2c3.2,6.8,3.4,15.1,2.8,22.5
				c-1,10.8-7.5,24.7-14.3,36.4c5.5-1.8,11.1-3.6,16.6-5.3c6.5-2,13-4,19.5-5.9c3.1-0.9,9.7-3,12.8-2.8c2.5,0.2,5.2,1,7.6,1.7
				c0.9,0.3,2.3,0.7,3.4,0.9c2.4-0.9,5-2,7.3-3c2.1-0.9,4.8-1.9,6.9-3c0.9-1.1,1.8-2.4,2.7-3.5c2-2.7,4-5.3,6-8c2-2.7,4-5.3,6.1-7.9
				c1.4-1.8,3.1-4,4.7-5.5c3.3-3,9.5-4.3,15-4.8c0.8-5.5,3-10.6,7.2-14.7c3.2-3.2,7-5.4,11.2-6.9c2.1-0.7,4-1.1,6.1-1.5
				c1.7-0.9,3.1-1.7,5.2-2c2.3-0.4,6.5,0,8.9,0.1c1.9,0.1,3.8,0.2,5.6,0.3c3.6-1.7,8.4-1.7,12.1-1.3c4.5,0.4,9.8,1.5,12.6,5.5
				c3.1,1.3,6.3,2.4,9.4,3.6c2.4,0.9,4.8,1.9,7.2,2.8c1.6,0.6,3.9,1.5,5.2,2.4c4.1,3,4.4,8.7,4.9,13.4c0.4,4.3,1.7,9.7,0.1,13.8
				c-1.5,3.8-5.4,5.4-8.9,6.8c-3.2,1.4-6.6,2.6-9.9,3.8c-3.3,1.2-6.5,2.3-9.8,3.4c-1.8,0.6-4.8,1.7-6.7,1.9
				c-3.3,0.3-11.9-3.2-16-4.8c-0.1,5.9-1.8,11.9-4.8,16.5c-0.7,1.1-1.4,2.1-2.2,3.2c2.5,7.9,2,18.1,0.7,25.2
				c-1.4,8-4.8,15-10.5,20.8c-1.9,1.9-3.9,3.6-6.1,5.1c-0.6,0.4-1.4,0.9-2.1,1.4c0,0.3,0,0.6,0,0.8c-0.2,2.7-0.8,5.1-2.8,7.1
				c-2.2,2.2-6,2.9-9,3.5c-3.5,0.8-7,1.5-10.5,2.1c-4.7,0.9-9.5,1.8-14.3,2.7c-0.2,0.1-0.4,0.3-0.5,0.4c-0.3,2-0.5,4.6-0.7,6.4
				c-0.3,3.1-0.6,7-1.6,10c-1.3,3.9-4.7,7-7.8,9.6c-0.3,0.3-0.7,0.6-1.1,0.9c0.4,0.6,0.8,1.3,1.2,2.1c2.9,5.7,4.2,12.1,4.4,18.4
				c0.2,6.7-1.1,13.3-3.4,19.5l-0.1,0.2l-0.1,0.2c-2.6,5.9-5.8,11.4-9.8,16.4c-1.9,2.5-4,4.8-6.3,7l15.1,84.2h2.1
				c7.7,0,14,5,17.4,11.7c10.4,20.7,21.7,40.9,32.1,61.6c2.3,4.7,4,10.1,1,14.9c-3.1,4.9-8.8,5.6-14,5.6h-19.3v18.4l-0.3,1.1
				c-0.5,1.5-1.2,3-2.2,4.2c-2.1,2.6-4.8,3.8-7.8,4.8c-2.9,1-5.8,1.8-8.7,2.8l-68.8,24c-0.1,0-0.3,0.1-0.4,0.1
				c0,0.1-0.1,0.2-0.1,0.2l-3.5,11l-0.1,0.3c-2.1,5.1-3.3,5.6-8,7.9l-0.2,0.1l-92.9,37.4c-3.6,1.4-7.3,2.9-11.2,2.9h-0.1h-0.2
				c-3.9,0-7.6-1.5-11.2-2.9l-92.9-37.4l-0.2-0.1c-4.7-2.2-5.9-2.8-8-7.9l-0.1-0.3l-3.5-11c0-0.1-0.1-0.2-0.1-0.2
				c-0.1,0-0.3-0.1-0.4-0.1l-68.8-24c-2.9-1-5.8-1.8-8.7-2.8c-3-1-5.7-2.2-7.8-4.8c-1-1.3-1.7-2.7-2.2-4.2l-0.3-1.1v-18.4H71.8
				c-5.3,0-11-0.7-14-5.6c-3.1-4.8-1.4-10.2,1-14.9c10.4-20.7,21.7-40.9,32.1-61.6c3.4-6.7,9.6-11.7,17.4-11.7h2.1l17.6-98.6
				c-0.9-1.6-1.8-3.1-2.7-4.7l0-0.1l0-0.1c-3.6-7.5-5.7-15.7-5.4-24.1c0.2-6.4,1.5-12.7,4.4-18.4c0.4-0.8,0.8-1.5,1.2-2.1
				c-2-1.5-4.4-3.2-6-5.1l-0.2-0.2l-0.2-0.2C118.9,200.4,118.8,200.3,118.7,200.1L118.7,200.1z"/>
			<path class="st1" d="M112.8,472l68.8,24c5,1.8,4,0.9,5.4,5.5l3.4,10.7c1.1,2.8,0.8,2.1,4,3.7l92.7,37.3c4.8,1.9,6.5,2.4,8.2,2.4
				h0.1h0.1h0.1h0.1c1.7,0,3.4-0.4,8.2-2.4l92.7-37.3c3.2-1.5,2.9-0.9,4-3.7l3.4-10.7c1.4-4.6,0.4-3.7,5.4-5.5l68.8-24
				c9.6-3.4,12.7-3.2,13.7-6.6v-25.2h27.3c7.8,0,9.5-1.9,5.9-9c-9.9-19.8-22.5-42.5-32.1-61.6c-2-3.9-5.6-7.3-10.3-7.3H474v-0.1
				l-33.7-188.3l-0.5-0.1c0-1.1,0-2.1-0.1-3l-0.9-4.7c-3.8-12.1-18.1-8.7-36.5-18.5l-54-11.6c-3.3-8.5,6.5-29.4-3.2-32.7
				C284.2,84.8,351.9,67,295.6,50l-0.1,0l-0.1,0l-0.1,0l-0.1,0l-0.1,0l-0.1,0c-56.3,17,11.4,34.8-49.5,53.1
				c-9.7,3.2,0.1,24.2-3.2,32.7l-54,11.6c-18.4,9.9-32.7,6.5-36.5,18.5l-0.9,4.7c-0.1,0.9-0.1,2-0.1,3l-0.5,0.1L117,362.1v0.1h-8.7
				c-4.7,0-8.3,3.4-10.3,7.3c-9.6,19.2-22.1,41.9-32.1,61.6c-3.6,7.1-1.9,9,5.9,9h27.3v25.2C100.1,468.8,103.2,468.6,112.8,472
				L112.8,472z"/>
			<path class="st0" d="M401.2,296.4c0.7,1.1,5.6,12.4,5.6,12.4s2.3-9,0.2-16.7c-2.1-7.7-4.9-11.7-5.4-12s-4.5-1.5-7.9-2.1
				c-3.5-0.5-7.9-0.3-7.9-0.3s-0.3-4.8-1.1-6.5c-0.8-1.7-2.5-2.2-2.2-4.3c0.3-2.1,1-4.1,1.2-5.3c0.2-1.2,0.2-1.3,0.2-1.3
				s19.1,12.7,26.3,16c7.2,3.3,11.9,4.7,13.9,4.8c1.9,0.1,13,0.9,23.1-8.2c10.2-9.1-73.4-37.2-72.9-33.2c0.5,4-7.2,39.8-7.2,39.8
				L401.2,296.4L401.2,296.4z"/>
			<path class="st0" d="M154.7,265.8l-5.1,1.6c0,0,3.6,7.2,19.7,13c16.2,5.7,24.7,1.2,27.9-1.1c3.2-2.3,25.3-17.4,25.3-17.4
				s-0.5,5.1-0.5,5.6c0,0.5,0.9,2.1,0.9,2.1s-0.9,0.2-1.4,2.4c-0.5,2.2-2.7,12.1-3.9,15.7s-1.2,3.7-1.2,3.7s-2.5,1.6-3.1,4.4
				c-0.6,2.8,0,4.1,0,4.1s-5.3,7.3,1.4,12.1c6.8,4.8,32.8-68.9,32.8-68.9l-40.1-3.8L154.7,265.8L154.7,265.8z"/>
			<path class="st1" d="M302.4,8.1c0,0-22.4-1.8-39.7,7.5c-17.3,9.3-22.3,38.6-22.9,39.7c-0.6,1.1-6.1,1.5-16-0.7
				c-9.9-2.2-16.1-4.9-18.1-4.2c-2,0.7-8.5,5.2-6.8,23.5c0.8,8.8,5.9,19.8,10.9,28.8c-0.4,0-0.9-0.1-1.4-0.2
				c-7.2-2.1-17.1-10.7-16.8-12.6c0.3-1.9,6-1,5.4-4.8c-0.5-3.8-11.1-13.6-11.2-20.3c-0.1-6.7,4.4-4.2,4.4-4.2s-1.8-5.1-7.2-6.6
				c-5.3-1.5-15.3-3-19,6.3s6.7,17.8,4.5,19.5c-2.2,1.7-17-0.2-15.9,10.2c1.1,10.5,10,15.3,9.8,15.6c-0.2,0.3-1.4,0.2-1.4,0.2l0,0
				c-2.2-0.6-3.7-0.9-4.2-0.9c-3,0.2-10.9,3.3-12.8,2.7c-1.9-0.6-17-6.8-18.1-7.9c-1.2-1.1-16.8-22.6-19.6-25.3s-15.4-3.1-15.4-3.1
				s-2,0.2-1.9-1.5c0.1-1.8,0.6-9.4-5.1-15.1s-13.5-6-14.6-6.6c-1.1-0.5-2.6-1.4-3.7-1.7c-1.2-0.2-14.2,0.7-14.2,0.7
				s-0.9,0.1-1.8-0.5c-0.9-0.7-3.6-1.4-8.5-0.9c-5,0.5-6.5,1.5-6.9,2.2c-0.4,0.7-1.4,1.9-2.3,2.2c-0.9,0.4-20.8,8-21.4,8.4
				c-0.6,0.4-1.1,1.6-1.7,7.7c-0.6,6.1-1.2,8.5-0.6,10.1C8.8,78,35.6,87.2,36.8,87.3c1.2,0.1,25.6-9.1,26.3-10.5
				c0.7-1.4,5.2-8.2,6-8.6c0.8-0.4,3.2-0.7,3.6,1.4c0.4,2.1-4.6,2.9-9.9,10.5c-5.3,7.6-1.8,18.7,0.7,22.5c2.5,3.8,4.9,6.2,4.9,6.2
				s-5.3,8.1-2.2,25.1c3.1,17.1,15.6,21.5,17.5,23.8c1.9,2.3,0.9,6.2,1.8,7.2c1,1,30.8,6.4,30.8,6.4s4.6,2.2,5.3,5.2
				c0.7,3,1.2,13.4,2.2,16.6c0.2,0.7,0.6,1.3,1.1,2c0,0,0,0.1,0.1,0.1c0.1,0.2,0.2,0.3,0.4,0.5c2.2,2.5,11.3,8.2,10.5,9.6
				c-0.8,1.5-7.6,6.5-8.1,21.6c-0.3,8.1,2.2,15.4,4.6,20.3c1.8,3.6,4.1,7.2,6.9,10.8c8.5,10.9,37.9,27.8,54.2,18.6
				c2.5-1.4,32.3-21.1,32.4-20.6c0,0.1,0,1.2,0,2.9l0,0c0,1.9-0.2,4.7-0.4,7.7l0,0c0.6,2.5,1.8,2.8,1.9,3.5c0.1,0.7-2.3,1.7-2.9,5
				c-1.3,8.6-4,16.4-4.1,16.6c-0.2,0.4-1.1,2.5-1.1,2.5s-1.1,0.2-2.1,1.9c-1,1.7-0.9,3.3-0.7,3.4c0.2,0.2-2.6,6-3,7.7
				c-0.3,1.7,1.3,4.6,1.3,4.6l-7.1,9.3l94.7,53L402.9,318c0,0,4.4-0.8,3.9-9.2c-0.4-5.6-3.5-22.5-8.1-26.7c-7.8-2.6-15.4-1-15.4-1
				s-1.4-7.1-1.5-7.9c-0.1-0.8-1.7-3.5-2.3-6.1c-0.5-2.7,1.3-4.4,1.3-6.5c0-2.1-0.7-6-0.7-6s23,15.2,30,18.7s11.4,4.8,11.4,4.8
				c10.5,0.8,29.1-0.8,43.9-20c3.8-4.9,6.6-9.9,8.8-14.7c1.7-4.5,3.1-10.2,2.9-16.4c-0.5-15.1-7.3-20.2-8.1-21.6
				c-0.9-1.6,10.3-7.7,11.8-12.1c1.1-3.2,1.5-13.7,2.2-16.6c0.7-3,5.3-5.2,5.3-5.2s29.9-5.4,30.8-6.4c1-1-0.1-4.8,1.8-7.2
				c1.9-2.3,14.4-6.7,17.5-23.8c3.1-17.1-2.2-25.1-2.2-25.1s2.3-2.4,4.9-6.2c2.5-3.8,6-14.9,0.7-22.5c-5.3-7.6-10.3-8.3-9.9-10.5
				c0.4-2.1,2.8-1.8,3.6-1.4c0.8,0.4,5.2,7.3,6,8.6s25.1,10.6,26.3,10.5c1.2-0.1,28-9.3,28.6-10.9c0.6-1.6,0-4-0.6-10.1
				c-0.6-6.1-1.1-7.3-1.7-7.7c-0.6-0.4-20.5-8.1-21.4-8.4c-0.9-0.4-1.9-1.5-2.3-2.2c-0.4-0.7-2-1.7-6.9-2.2c-5-0.5-7.6,0.2-8.5,0.9
				c-0.9,0.7-1.8,0.5-1.8,0.5s-13-0.9-14.2-0.7c-1.2,0.2-2.7,1.1-3.7,1.7c-1.1,0.5-8.9,0.9-14.6,6.6c-5.7,5.7-5.2,13.3-5.1,15.1
				c0.1,1.8-1.9,1.5-1.9,1.5s-12.5,0.4-15.4,3.1c-2.9,2.7-18.5,24.2-19.6,25.3c-1.2,1.1-16.2,7.3-18.1,7.9
				c-1.9,0.6-9.8-2.5-12.8-2.7c-3-0.2-53.8,15.8-58.2,17.8c-4.4,2-7,3.4-6.9,1.1c0.1-2.3,1.5-3.9,1.5-3.9s20-27.9,21.7-46.1
				s-4.8-22.7-6.8-23.5c-2-0.7-8.2,1.9-18.1,4.2c-9.9,2.2-15.4,1.8-16,0.7c-0.6-1.1-5.7-30.4-22.9-39.7S302.4,8,302.4,8.1L302.4,8.1
				z"/>
			<path class="st2" d="M498.3,131.8l1.7-0.6c0,0,2.6,7.1,10.3,5c7.6-2,8.7-13.8,8.7-13.4c1.6,13.8-11,20.3-20,11.7L498.3,131.8
				L498.3,131.8z"/>
			<path class="st3" d="M107,131.8l-1.7-0.6c0,0-2.6,7.1-10.3,5c-7.6-2-8.7-13.8-8.7-13.4c-1.6,13.8,11,20.3,20,11.7L107,131.8
				L107,131.8z"/>
			<path class="st4" d="M240.3,192.1c0,0,11,21.5,23.9,35.5c12.9,14.1,18.5,16.9,18.5,16.9s6.6-1.2,12.4-2.8
				c5.8-1.7,8.2-4.2,8.2-4.2s-7.6,1.5-12.6,1.7c-5.1,0.2-5.8,0.2-5.8,0.2s-10.1-9.4-18.5-19.1c-8.3-9.6-8.8-12-8.8-12
				s14.6,13.9,22.7,18.8s11.1,6.1,11.1,6.1s10.6-3.2,26-17.3c15.5-14.1,17.9-19.1,17.9-19.1s-1.3,0.7-4.2,1.9s-4.6,1.5-4.6,1.5
				s11.2-11,20.1-21.8c1.4-1.7,2.6-3.3,3.8-4.8l-10.2,19.1c0,0,17.1-7.6,31.1-15.6c14-8,18-12.2,18-12.2s-0.9-3.9-0.9-6.4
				c0.1-2.5,0.1-2.6,0.1-2.6l-18.3,15c0,0,14.9-21.3,15.2-21.9c0.2-0.5-5.3-3.9-11.2-5.5c-5.9-1.6-9.3,0.9-9.3,0.9s2.3,0.2,5.5,1.3
				c3.1,1.1,4.8,3,4.8,3.4c0,0.4-9.4,17.3-15,25.1c-1.2,1.6-2.4,3.1-3.5,4.5c0.2-1,0.4-2.5,0.7-4.7c0.8-6.3,1.7-14.2,1.7-14.2
				s-22.7,25.2-38.6,37.2c-15.9,12.1-18.5,13.4-18.5,13.4s-17.4-11.1-27.7-20.6c-10.2-9.5-12.3-11.8-12.3-11.8s5.4,11.3,7.3,13.8
				c1.9,2.5,2.9,3.8,2.9,3.8s-8.6-6.2-19-18.8c-10.4-12.6-12.2-15.3-12.2-15.3s9.6,19.3,24.1,35.1c14.5,15.8,21.8,19.5,23.7,20.1
				c1.9,0.5,16.8-1.8,16.3-1.8c-0.5-0.1-5.9,4.1-9.7,6.3c-3.8,2.2-5.6,3.3-6.6,2.8C288.1,223.8,253,202.4,240.3,192.1L240.3,192.1z"
				/>
			<path class="st4" d="M368,145.1c0.8,0.2,1.7,0.4,2.7,0.8c3.1,1.1,4.8,3,4.8,3.4c0,0.3-6.9,12.8-12.4,21.3l-1.5,8.5l19.1-30.3
				c0,0-2.6-1.9-6.4-2.8C370.3,145,368,145.1,368,145.1L368,145.1L368,145.1z M357,178.9c0.2-1,0.4-2.5,0.7-4.7
				c0.8-6.3,1.7-14.2,1.7-14.2c-2.4,10.3-19,32.8-19,32.8L357,178.9L357,178.9z"/>
			<path class="st4" d="M357,178.9c0.2-1,0.4-2.5,0.7-4.7c0.8-6.3,1.7-14.2,1.7-14.2c-2.4,10.3-19,32.8-19,32.8L357,178.9L357,178.9
				z"/>
			<path class="st4" d="M173,103c0,0-7-3.8-9.1-7.7c-2-3.9-0.3-6.6,0.6-7.4c0.9-0.9,12.8,1.1,14,0.2s-0.5-2.8,0.6-5.1
				c1.1-2.2,4.3-2.7,4.7-3.4c0.4-0.7-2.5-1.5-4.1-6.5c-1.5-5,0.1-6.6,0.1-6.6s-0.8,2.3,1.9,6.7s6.3,5.8,6.6,6.9
				c0.3,1.1-3.9,2.4-5.3,4.8c-1.3,2.4,0.4,8.6,8.5,14.7c8.1,6.1,15.4,9.3,15.4,9.3s-8.8-1.1-17.7-6.7c-8.9-5.6-6.6-7.7-14.3-9.1
				c-7.7-1.4-8,3.3-5.3,6.1C172.2,101.9,173,103,173,103L173,103z"/>
			<path class="st0" d="M228.7,198.2c0,0,8.5,17.8,22.6,34.8s26.7,23.6,26.7,23.6s7.5-1.9,12.4-4.1c4.9-2.1,7.2-3.7,7.2-3.7
				l-1.2,58.6h-8.5c0,0-2.6,0.2-3.6,1.3c-1,1.1-1.6,3.6-2.3,3.8s-15.9-2.1-16.8-3c-0.9-0.9-2.9-2.5-5.5-3.7c-2.6-1.2-4,0.7-5.7-0.1
				s-2.4-2.5-4.4-3.6c-2-1.1-4.3-0.1-5.1-0.6c-0.8-0.6-1.4-3-4-4.3c-2.6-1.3-3.3-0.1-4-0.9c-0.6-0.8,0.3-4.7,1-5.3
				c0.7-0.6,0.7-0.2,1.1-0.2c0.4,0,6.8,5,6.1,3.9c-0.6-1.1-7.9-8.1-8-9.3c-0.1-1.2,1.8-4.5,2.3-6.4c0.5-1.9,0.3-4.3,0.3-4.3
				l12.2,5.9l11.2,9.5c0,0-6.6-13.6-9.4-15.7c-2.8-2.1-17.3-11.1-16.9-13c0.4-1.9,1.6-9.2,2.6-8.9c1,0.3,13.9,7.9,13.1,6.3
				c-0.7-1.6-16.3-17.3-17.8-20.9c-1.5-3.6-3.3-5.4-1.8-7.2c1.5-1.7,2.5-4.5,2.7-6.2c0.2-1.7-3.3-11.7-5-17.9
				C228.5,200.6,228.7,198.2,228.7,198.2L228.7,198.2z"/>
			<path class="st0" d="M309.5,242.6l-2.2,64.8c0,0,8.9,0.2,9.8,0.4c0.9,0.3,3.8,4.4,4.1,4.6c0.3,0.2,10.5-1.3,13.8-2.2
				s3.8-1.1,3.8-1.1s1.7-1.9,4.6-2.8c2.9-0.9,6,0.1,6.7-0.2c0.7-0.3,13.9-7.2,15-8.1c1.1-1,3.4-6.1,3.5-6.7c0.1-0.6-1.8-2.7-1.8-2.7
				s-5.2,4.4-6.3,4.8c-1.1,0.4-4.1,0.9-4.1,0.9s5.2-3.6,5.6-3.8c0.4-0.2,4.9-4.3,5.4-5.5c0.5-1.2,1.2-3.8,1.2-4.2
				c-0.1-0.4-2.6-2-3.1-1.7s-18.8,15.8-19.1,15.4c-0.3-0.5,1.2-5.9,1.9-6.9c0.7-1,18.6-21.3,19-22.1c0.4-0.7,1.1-2.9,1.1-2.9
				s-3.7-3.1-5.1-3s-14.6,8.3-13.9,6.7c0.7-1.5,21.1-21.2,21.6-22.6c0.4-1.4-1.5-4.2-0.7-6.9c0.7-2.8,5-13.2,4.7-14.8
				c-0.3-1.6-5.1-12-6.4-18.9s-0.9-10.9-1.6-10.9c-0.7,0-1.8-0.2-2.7,0.1c-0.9,0.3-18.9,7.6-19.4,9.2s-21.5,23.3-21.5,23.3
				S319.4,234,309.5,242.6L309.5,242.6z"/>
			<path class="st5" d="M251.2,137.8c0,0-0.9-5.8-5.1-7.2s-6.5,4.1-3.3,10.4c3.3,6.4,13.2,13,15,13.9c1.8,0.9,2.3,1.2,2.9,1.5
				s5.4,16,15.4,25.2c9.9,9.3,20.9,14.1,22.8,14.6c1.8,0.6,3.4,0.7,3.4,0.7s7.1-0.8,16.8-7.7c9.7-6.8,13.5-13,14.1-13.8
				c0.5-0.8,0.4-1.6,0.4-1.6s-3-6-3.7-6.6c-0.7-0.6-19.3-9-19.8-9.5c-0.5-0.4-3.3-14-3.4-14.3c-0.1-0.3-3.5-2.8-3.5-3
				c0-0.2,0-1,0-1.3s0.3-0.4,0.3-0.4s6.8,1.9,7.1,2.1c0.3,0.1-0.7,2.2-0.8,2.5c-0.1,0.3,2.6,12,3,12.8c0.4,0.8,19.7,9.7,20.2,10
				c0.5,0.2,4.8,5.5,4.7,5.9c-0.1,0.4-1.5,2.8-1.9,3.8c-0.4,1.1,3.2-2,3.2-2s1.6-2,4.4-8.3c0.7-1.6,1.3-3.2,1.8-4.7l-3.9-5.7
				l-4.4-1.5c-2.2,2.8-5.3,5.5-10.2,6.1c-5.9,0.7-12-5.6-11.5-11.3c0.1-1.7,0.7-3.3,1.5-4.7l-2.2-1.1l-0.2-0.2l-1.6-3.4
				c-4.3-0.8-10.5-2.1-10.5-2.1s-9.9-0.7-23-4.6c-13-3.9-13.2-4.4-14.2-4.5c-1-0.1-9.2,5.5-9.3,6.1c-0.1,0.6,1.4,12.4,1.2,13
				c-0.2,0.6-0.9,1.4-1.3,1.2c-0.4-0.2-7-4.2-9-7.8c-2-3.6-1.1-4.8,0.5-4.5c1.6,0.2,3,2.5,3.2,3
				C250.5,139.4,251.5,138.7,251.2,137.8L251.2,137.8z M345.6,159.7c1.1-4,1.5-7.3,1.8-7.9c0.4-1,4-3.4,4.4-4.4
				c0.4-1,0.4-11.7,0.5-12.8c0.1-1.2-5.7-4.8-5.7-4.8s-0.9,19.2-0.9,19.5s-0.5,0-1.3-0.7c-0.7-0.7-0.8-2.5-0.9-2.6
				c-0.1-0.1-3.3-0.1-3.5,0c-0.2,0.1,0.3,2.8-1.9,6.1c-0.2,0.3-0.4,0.5-0.6,0.8l4.3,1.4l0.3,0.2L345.6,159.7L345.6,159.7z
				 M317.3,143.1c2.1-2.9,5.3-4.6,8-4.7c4.2-0.1,7.2,1.7,7.4,1.2c0.2-0.5-1.5-2.4-6.7-2.6c-5.2-0.2-8,2.3-9.1,2.7
				c-0.3,0.1-1.4,0-2.9-0.3l1.2,2.6L317.3,143.1L317.3,143.1z"/>
			<path class="st6" d="M263.1,162c2.4,5.5,6.7,13.9,12.9,19.7c9.9,9.3,20.9,14.1,22.8,14.6c1.8,0.6,3.4,0.7,3.4,0.7
				s7.1-0.8,16.8-7.7c9.7-6.8,13.5-13,14.1-13.8c0.5-0.8,0.4-1.6,0.4-1.6s-3-6-3.7-6.6c-0.7-0.6-19.3-9-19.8-9.5s-3.3-14-3.4-14.3
				c-0.1-0.3-3.5-2.8-3.5-3c0-0.2,0-1,0-1.3s0.3-0.4,0.3-0.4s6.8,1.9,7.1,2.1c0.3,0.1-0.7,2.2-0.8,2.5s2.6,12,3,12.8
				c0.4,0.8,19.7,9.7,20.2,10c0.5,0.2,4.8,5.5,4.7,5.9c-0.1,0.4-1.5,2.8-1.9,3.8c-0.4,1.1,3.2-2,3.2-2s1.6-2,4.4-8.3
				c0.7-1.6,1.3-3.2,1.8-4.7l-3.9-5.7l-4.4-1.5c-2.2,2.8-5.3,5.5-10.2,6.1c-5.9,0.7-12-5.6-11.5-11.3c0.1-1.7,0.7-3.3,1.5-4.7
				l-2.2-1.1l-0.2-0.2l-1.6-3.4c-4.3-0.8-10.5-2.1-10.5-2.1s-9.9-0.7-23-4.6c-13-3.9-13.2-4.4-14.2-4.5c-0.6-0.1-3.7,1.9-6.2,3.6
				c5.4,1.5,13,3.6,14.6,4.3c2.6,1.2,6.7,7.6,11.4,9.7s8.9,3.9,8.9,3.9l3.9-2.5c0,0,3.6,2.2,3.6,3.9c0,1.7,0,10.6,0,10.6
				s-0.6,1.5-3.4,0.8c-2.9-0.7,1.9,3,1.9,3l4.5,2.6c0,0,2.3,1.6,3.5,5.1c1.2,3.4-1.3,5.6-1.3,5.6l-8.9,1c0,0,4.2,0.6,9.6-0.5
				c5.4-1.1,14.4-8,11.1-3.3c-3.3,4.8-9.3,7.9-14.5,7.8c-1.7,0-3.3-0.3-4.7-0.7c0.3,0.5,0.5,1.1,0.5,1.7c0,2.1-0.6,3.7-1.5,4
				S279.8,183.3,263.1,162L263.1,162z M346.1,157.8l-6.5-8.8c-0.3,0.9-0.7,2-1.5,3.2c-0.2,0.3-0.4,0.5-0.6,0.8l4.3,1.4l0.3,0.2
				l3.5,5.1C345.8,159,345.9,158.4,346.1,157.8L346.1,157.8z M332.7,139.5l-0.6-0.8c-0.9-0.7-2.8-1.5-6.1-1.7
				c-5.2-0.2-8,2.3-9.1,2.7c-0.3,0.1-1.4,0-2.9-0.3l1.2,2.6l2.2,1.1c2.1-2.9,5.3-4.6,8-4.7c4.2-0.1,7.2,1.7,7.4,1.2
				C332.7,139.6,332.7,139.6,332.7,139.5L332.7,139.5z"/>
			<path class="st0" d="M302.2,20.4c0,0-17.2,0.1-26,2.1c-8.8,2-11.2,3.4-12.1,4.8c-0.9,1.4-8.4,19.5-10.4,32.4
				c-2,13-1.7,15.5-1.3,16c0.4,0.5,1.5,8.3,13.9,11.1c1.8,0.4,3.7,0.7,5.5,0.9c6.9,0.6,21.5-0.1,31-15.4c8.3-13.2,9-23.3,8.6-28.8
				c-0.3-1.8-0.6-3.1-0.6-3.8c-0.2-0.6-0.3-0.9-0.3-0.9c0.1,0,0.9-0.1,0.9-0.1l0.1,0c2-0.3,9,0.2,19.3-2.7
				c11.7-3.3,10.4-11.1-3.4-13.6S302.2,20.4,302.2,20.4L302.2,20.4z"/>
			<path class="st7" d="M344.4,33c0,0,4.8,11.3,4.9,24.7c0.1,13.4-1.8,18.7-1.4,19.3c0.4,0.6,7.2,3,7.2-11.3S346,29.4,344.4,33
				L344.4,33z"/>
			<path class="st0" d="M237.9,69.9c0,0,0.2,14.2,13,25.7c12.8,11.5,32.5,11.9,36.6,12.2c4.1,0.3,9.7-0.8,10.2-1.2
				c0.5-0.4-6.7-0.7-16.2-4.4c-9.5-3.7-11.8-6.7-11.1-6.5c0.7,0.2,18.2,6.4,36.9,5.3c18.7-1.1,36.1-8.9,35.7-8.4
				c-0.4,0.4-15.6,8.7-23.6,11.5c-8,2.8-14.4,8.1-12.9,13.2c1.5,5.1,32-0.2,48-9.7c16-9.5,26.9-20.3,30-29.5c3-9.2-9.7-6.8-9.8-7.6
				c-0.1-0.8,6.9-2.9,12.5-4.1c5.5-1.2,6.6-0.1,6.8,1.1c0.3,1.2-1.2,29.2-35,45.9s-62.4,13.5-82.2,9.2
				c-19.7-4.3-44.6-17.6-54.6-30.8s-12.5-21.7-11.7-24C211.3,65.3,237.9,69.9,237.9,69.9L237.9,69.9z"/>
			<path class="st8" d="M402.3,133c3.4-1.2,37.2-11.9,40.5-12.7c3.3-0.8,10.9,0.3,10.3,0.9c-0.4,0.4-6.4,4.3-11,7.4
				c-3,2-5.3,3.8-5,4c0.8,0.5,62.7-28.8,66.5-30.1c3.8-1.2,12.1-1.2,11-1.9c-1.1-0.6-6.6-2.5-6.9-3.2c-0.4-0.7,0-11.1,0-11.1
				s-0.8-2-3.3-0.4c-2.5,1.6-14.2,12.7-14,11.4c0.3-1.3,12.3-16.5,12.9-16.8c0.6-0.4,11.2,0.1,11.2,0.1s2-0.2,2.2,1.8
				c0.2,2,0.3,18.5,0.6,18.9c0.3,0.4,2.3,1,4.4,2.7c2,1.7,3,3.3,3.2,3.2c0.1,0,6.3-6.2,8-16c0,0.1,0,0.2-0.1,0.3
				c0,0,1.5,2.7,1.4,8.4c0,2.1-0.4,4-0.9,5.6l0,0c-0.3,0.4-0.6,0.8-1,1.2c-5.2,6.2-11.5,9.3-15.8,10.7c-4.3,1.4-9.7,1.5-9.1,1.1
				c0.6-0.4,4.8-1.6,8.6-3.8c3.9-2.2,2.9-2.8,2.4-3.7c-0.5-0.8-6.5-5.5-14.2,1c-7.6,6.5-7.3,22,1.9,26.4c9.2,4.4,15.7-2.9,17.3-8.7
				c1.5-5.8-0.3-8.4,0.3-9.7c0.6-1.3,3.9-2.5,4.8-2.3c0.9,0.2,2.8,7.7-1,17.3c-3.7,9.6-12.7,12.5-13.3,13.4c-0.6,0.9-1.2,6-1.5,6.6
				c-0.3,0.6-55.7,10-54.3,10.4c1.3,0.4,4.6,2.4,4.6,2.4s-0.1,11.9-0.5,13.5c-0.4,1.6-2.3,7.2-9.2,10.2c-6.9,3-19.7,4.4-18.3,3
				c1.4-1.3,10.7-6.6,13.1-11.4c2.4-4.8-1.2-20.4-0.5-21.5c0.7-1.2,0.7-1.5,1.8-1.7c1.1-0.2,55.7-14.9,55.7-14.9s1.1-0.4-0.5-1.2
				c-1.2-0.6-4.9-2.9-7.6-7.3c-7.3,2.6-31.4,11.1-37.4,12.7c-7.1,1.9-10.7,1.5-11.7,1.5c-0.9,0,38.9-14.4,47.5-17.6
				c-0.3-0.8-0.5-1.6-0.7-2.4c-1.8-8.1,0.4-12.9,1.3-14.9c0.9-2-1.8,0.4-3.3,2.4c-1.5,2-1.7,3.7-2,3.8c-0.3,0.1-53,20.6-53,20.6
				s-2,2.2-0.1,5.5c1.9,3.3,5.3,3.8,5.5,4.2c0.2,0.4-1.1,1.8-0.7,4.8s1.4,4.6,1,4.4c-0.4-0.3-3.1-2-3.7-4.2
				c-0.5-2.2,0.4-3.2,0.1-3.5c-0.4-0.3-5-1.6-6-6.6c-1-5,1.1-9,1.1-9s-15.3,4.5-17,5.1c-1.6,0.6-3.2,3.2-3.4,3.9
				c-0.2,0.7-0.3,0.9-0.4,1c-0.1,0.1-10.3,3.2-10.3,3.2s-3.1,1.7-3.4,6.4c-0.3,4.7,2.8,7.6,4.3,6.4c1.5-1.2,0.4-1.6,0.5-3.5
				s1.1-2.2,1.4-2.3c0.3-0.1,5.8-1,6.2-1.6c0.4-0.7,1.2-4,1.6-3.8s-0.2,1.3,0.4,4.1s1.9,4.2,1.8,4.5c-0.1,0.3-9.9,3.7-9.1,3.7
				c0.8,0,9.8-1.2,9.8-1c0,0.3-0.2,1.3,1.4,3c1.6,1.8,5.5,2.4,5,2.5c-0.5,0.1-15.4,3.9-15.4,3.9s-9.6-0.9-11.6-11.6
				c-2-10.7,3.9-16.2,3.9-16.2l26.3-8.9c0,0,2.4-1.6,2.1-3.9s-5.2-2.4-6.5-2.3c-1.2,0.1-27,8.2-27,8.2
				C396.6,136.7,399.4,134,402.3,133L402.3,133z"/>
			<path class="st5" d="M503.7,102.5c-3.3,1.1-49.9,23.1-63.1,28.8c0,0-7.1,4.6-7.5,5.2c-0.4,0.6,53.9-20.1,53.9-20.1
				s-1.7,1.9-4.1,9c4.6-1.8,7.6-3,7.7-3c0.3-0.1,0.5-1.9,2-3.8c1.5-2,4.2-4.4,3.3-2.4c-0.9,2-3.1,6.7-1.3,14.9
				c0.2,0.8,0.4,1.6,0.7,2.4c0,0,1,2.5,1.6,3.4c0,0,0,0,0,0c2.6,4.4,6.4,6.7,7.6,7.3c0.4,0.2,0.6,0.3,0.7,0.5c0,0,6.5,3.5,13.8,1
				c2.9-2,6.5-5.2,8.6-10.5c3.7-9.6,1.9-17.1,1-17.3c-0.9-0.2-4.3,1-4.8,2.3c-0.6,1.3,1.2,4-0.3,9.7c-1.5,5.8-8.1,13.2-17.3,8.7
				c-9.2-4.4-9.6-19.9-1.9-26.4c7.6-6.5,13.7-1.9,14.2-1c0.5,0.8,1.5,1.5-2.4,3.7c-3.9,2.2-8,3.4-8.6,3.8c-0.6,0.4,4.8,0.4,9.1-1.1
				c4.3-1.4,10.5-4.5,15.8-10.7c0.3-0.4,0.6-0.8,1-1.2l0,0c0.5-1.6,0.9-3.5,0.9-5.6c0.1-5.6-1.4-8.4-1.4-8.4l0.1-0.3
				c-1.8,9.8-7.9,16-8,16c-0.1,0-1.1-1.6-3.2-3.2c-2-1.7-4.1-2.3-4.4-2.7c-0.3-0.4-0.4-17-0.6-18.9c-0.2-2-2.2-1.8-2.2-1.8
				s-10.5-0.5-11.2-0.1c-0.6,0.4-12.6,15.5-12.9,16.8c-0.3,1.3,11.5-9.8,14-11.4c2.5-1.6,3.3,0.4,3.3,0.4s-0.4,10.4,0,11.1
				c0.4,0.7,5.9,2.6,6.9,3.2C515.8,101.2,507.6,101.2,503.7,102.5L503.7,102.5z"/>
			<path class="st4" d="M521.2,69.4c1.5,11.1,12.9,8,12,19.4c-0.1,1-0.2,2-0.4,2.9c0,0,1.5,2.7,1.4,8.4c0,2.1-0.4,4-0.9,5.6
				c4.7-6.2,7.9-15.1,5.3-21.1c-2.8-6.4-12.5-9.7-13.4-16.1c-1-6.4,4.8-10.5,5.9-11.4C532.1,56.1,519.7,58.3,521.2,69.4L521.2,69.4z
				"/>
			<path class="st2" d="M460.6,174.8c0-2.3-1.4-2.2-1.4-2.2l-10.5,0.7c0.4,4,0.4,7.9-0.6,10c-2.4,4.8-11.7,10.1-13.1,11.4
				c-1.4,1.3,11.4,0,18.3-3c3.4-4.4,6.9-8.8,7-10C460.4,180.3,460.6,177.1,460.6,174.8L460.6,174.8z"/>
			<path class="st2" d="M447.9,166.6l10.6-1.2c-1.3-0.4,54.1-9.8,54.3-10.4c0.3-0.6,0.9-5.7,1.5-6.6l-66.8,14.5
				C447.6,163.8,447.7,165.1,447.9,166.6L447.9,166.6z"/>
			<path class="st3" d="M453.5,129l-2,8.5c4.9-1.9,10.5-4.1,15.9-6.2c0.5-2.4,1.3-6.2,1.7-8.2C464.1,125,458.7,127.1,453.5,129
				L453.5,129z"/>
			<path class="st5" d="M395.2,139.4c0,0,25.8-8.1,27-8.2c0,0,16.7-7,21.3-6.9c1.9,0.1,3,0.4,3.7,0.7c3-2,5.5-3.7,5.8-3.9
				c0.6-0.6-7-1.7-10.3-0.9c-3.3,0.8-37.1,11.6-40.5,12.7C399.4,134,396.6,136.6,395.2,139.4L395.2,139.4z"/>
			<path class="st3" d="M417.1,164.7c0-0.3-9,1-9.8,1c0,0,0,0,0,0l-8.6,2.6c3.5,5.4,9.4,5.9,9.4,5.9s14.9-3.8,15.4-3.9
				c0.5-0.1-3.4-0.8-5-2.5C417,165.9,417.1,164.9,417.1,164.7L417.1,164.7z"/>
			<path class="st9" d="M423.2,177.1c0,0,3,1.3,6.6,0.9c3.6-0.4,10-1.9,11.6-2c1.6-0.2,2.6,0.7,2.6,0.7s0,3.7-1.5,6
				c-1.6,2.3-10.8,7.6-11.3,7.6c-0.5,0-10,1.1-12-5.3C417.1,178.5,423.2,177.1,423.2,177.1L423.2,177.1z"/>
			<path class="st10" d="M468.7,173.1c0,0,0.1,6.8-0.7,9.6s-3.1,4.3-2.7,4.5c0.4,0.2,1.7-0.3,2.1-0.4c0.4-0.2,4.2-1.9,5.2-5.2
				c1-3.3,0.8-5.8,0.8-5.8s0-1.4-1.4-2.2C470.5,172.6,468.7,173.1,468.7,173.1L468.7,173.1z"/>
			<path class="st11" d="M427,198.4c0,0,0.9,2.5,3.1,2.5s13.2,0.3,19.7-1.9c6.5-2.1,10.1-5.8,10.7-5.2c0.5,0.7-2.2,10-9.2,13.8
				c-7,3.8-21.1,2.7-22.6,2c-1.5-0.8-4.6-2.7-4.5-6.9C424.3,198.4,427,198.4,427,198.4L427,198.4z"/>
			<path class="st11" d="M424.2,214.6c0,0,1.2,2.2,4.3,2.7c3.1,0.4,16.2,0.8,21.5-1.1c5.3-1.9,6.5-3.5,6.5-3.5s-2,10.8-7.5,13.3
				c-5.5,2.5-20.7,1.3-22.8,0.4C424.2,225.6,421.2,219.7,424.2,214.6L424.2,214.6z"/>
			<path class="st11" d="M423.2,232.3c0,0,3,3.2,6.1,3.4c3.1,0.1,15,0.9,18.1-0.2c3.1-1.1,3.4-1.8,3.4-1.8s-0.4,6.1-4.6,9.8
				c-4.2,3.7-6.3,3.5-10.2,3.3c-4-0.2-9.7,0.4-12.1-3.7S421.5,235.3,423.2,232.3L423.2,232.3z"/>
			<path class="st11" d="M413.7,192c0,0,1,7.8,0.9,16.3c-0.1,8.4-1.1,14.9-2,14.5c-1-0.4-10.8-2.1-12.2-11.2
				c-1.4-9.1-0.4-18.5,2.9-21.1C406.6,187.9,413.6,187.8,413.7,192L413.7,192z"/>
			<path class="st5" d="M436.4,236c-3.1-0.1-5.8-0.3-7.1-0.3c-3.1-0.1-6.1-3.4-6.1-3.4c-1.7,3-1.8,6.7,0.6,10.8
				c1.8,3.1,5.5,3.5,8.8,3.6L436.4,236L436.4,236z"/>
			<path class="st5" d="M426.2,226.4c0.9,0.4,4.6,0.9,8.9,1l3.2-9.8c-4.3,0.1-8.3-0.1-9.9-0.3c-3.1-0.4-4.3-2.7-4.3-2.7
				C421.2,219.7,424.2,225.5,426.2,226.4L426.2,226.4z"/>
			<path class="st5" d="M428.7,209.6c0.8,0.4,5,0.9,9.8,0.7l3.9-9.9c-5.4,0.6-10.8,0.4-12.3,0.4c-2.2,0-3.1-2.5-3.1-2.5
				s-2.7,0-2.8,4.3C424.1,206.9,427.2,208.8,428.7,209.6L428.7,209.6z"/>
			<path class="st5" d="M408.3,221.3c0.4-9.5,0.9-25.8,0.6-27.9c-0.4-2.9-2.9-4.3-2.9-4.3c-1,0.3-2,0.8-2.7,1.4
				c-3.3,2.6-4.4,12-2.9,21.1C401.2,217,405.1,219.8,408.3,221.3L408.3,221.3z"/>
			<path class="st5" d="M419.2,185.2c1.1,0,2.4-0.3,3.6-1.1c3.1-2,2.5-2.8,3.9-3.2c1.4-0.4,11-1.1,12.2-2.2s0.2-2.4-1.2-2.1
				c0,0,0,0,0,0c-2.5,0.5-5.7,1.1-7.9,1.4c-3.6,0.4-6.6-0.9-6.6-0.9s-6,1.4-4,7.8C419.2,185,419.2,185.1,419.2,185.2L419.2,185.2z"
				/>
			<path class="st3" d="M425.5,144.3c1.2,0,2.3,0.4,3.3,1l0,0l0,0c0.2,0.2,0.2,0.5-0.1,0.9c-0.3,0.4-1.1,0.1-1.2,0.1h0l0,0l0,0l0,0
				h0h0h0l0,0c-0.4-0.1-0.8-0.2-1.2-0.2c-2.1,0-3.7,1.7-3.7,3.7s1.7,3.7,3.7,3.7c1,0,2-0.4,2.6-1.1c0.7-0.5,1.1-0.1,1.4,0.2
				c0.3,0.3,0,0.9,0,0.9c-1.1,1.5-2.8,2.5-4.8,2.5c-3.2,0-5.8-2.6-5.8-5.8C419.7,146.9,422.3,144.3,425.5,144.3L425.5,144.3z"/>
			<path class="st3" d="M429,158.5c1-0.1,2,0,2.8,0.4l0,0l0,0c0.2,0.1,0.3,0.4,0,0.8c-0.2,0.3-0.9,0.2-1,0.2l0,0h0h0l0,0h0h0l0,0
				l0,0c-0.3-0.1-0.7-0.1-1,0c-1.7,0.3-2.9,1.8-2.6,3.5c0.3,1.7,1.8,2.9,3.5,2.6c0.8-0.1,1.6-0.6,2-1.2c0.5-0.5,0.9-0.2,1.1,0
				c0.3,0.2,0.1,0.7,0.1,0.7c-0.7,1.4-2,2.4-3.6,2.6c-2.7,0.4-5.1-1.4-5.5-4.1C424.5,161.4,426.3,158.9,429,158.5L429,158.5z"/>
			<path class="st12" d="M539,55.2c0,0,0-0.9,0.5-2c0.5-1.1,1.6-1.2,2.2-1.2c0.5,0,13.5,1.1,14,0.8c0.4-0.4,1-2.2,3.2-2.8
				c2.1-0.6,4.9,0,5.2,0c0.2,0.1,0.6,0.3,0.4,0.3c-0.2,0-3.8,0-5.3,2.5c-1.6,2.4-2.7,6.4-2.7,6.4s-2.3,1.1-2.7,0.9
				C553.3,59.9,539,55.2,539,55.2L539,55.2z"/>
			<path class="st5" d="M560.9,55.3c0,0,9.1,6.2,9.6,6c0.5-0.2,6-1.6,6-1.6l-8.8-7.7c0,0-2.6-0.3-4.2,0.5
				C561.9,53.3,560.9,55.3,560.9,55.3L560.9,55.3z"/>
			<path class="st8" d="M559.2,61.1c0,0,9.4,3.6,10,3.2c0.5-0.4,12.6-3.4,12.6-3.4s-5.4-4.5-5-4.4c0.4,0.1,14,4.6,14.1,4.7
				c0.1,0.1,0.9,13,0.6,13c0,0-0.6,0.2-1.6,0.5v-6.9l-2.4,0.7v7l-2.8,0.9v-7l-2.4,0.7v7.1l-2.8,0.9v-7.2l-2.4,0.7v7.3
				c-1,0.3-1.9,0.6-2.8,0.9v-7.3l-2.4,0.7v7.4c-1.8,0.6-3,0.9-3,0.9c-0.2-0.3-0.6-11.7-0.3-12c0.3-0.2,17.6-6.3,17.9-7
				c0.4-0.7-18,4.4-18.6,4.2c-0.6-0.2-9.4-3.6-9.4-3.6s0.8,12.8,0.5,12.5c-0.3-0.3-1.5-0.9-1.5-2.9c0-2-0.8-10.5-0.5-10.8
				C557.6,61.6,559.2,61.1,559.2,61.1L559.2,61.1z"/>
			<path class="st4" d="M557.9,55.1l-18.1-2.4c-0.1,0.1-0.2,0.3-0.3,0.5c-0.5,1.1-0.5,2-0.5,2s14.3,4.7,14.7,4.9
				c0.4,0.2,2.7-0.9,2.7-0.9S557,57.1,557.9,55.1L557.9,55.1z"/>
			<path class="st8" d="M253,313.8c0,0-4.6,15-5.1,16.8c-0.5,1.8,0.3,8.1,0.8,7.9c0.5-0.2,4.3-4.5,5.1-5.9
				c0.6-1.1,4.4-11.8,6.1-16.7c0.1-0.3,0.2-0.6,0.2-0.9c-0.7,0.5-2.3,0.6-3.9,0.1c-1.5-0.5-2.6-1.3-3-2.1
				C253.2,313.2,253.1,313.5,253,313.8L253,313.8z"/>
			<path class="st13" d="M257.9,310.6c1.9,0.6,3.2,1.9,2.9,2.8c-0.3,1-2.1,1.2-4,0.6c-1.9-0.6-3.2-1.9-2.9-2.8
				C254.2,310.3,256,310,257.9,310.6z"/>
			<path class="st14" d="M249.1,331.3c0.4-0.9,5.5-17,5.5-17c-0.6-0.4-1.1-0.9-1.3-1.3c-0.1,0.2-0.2,0.5-0.3,0.8
				c0,0-4.6,15-5.1,16.8c-0.5,1.6,0.1,6.6,0.6,7.7C248.4,338.3,248.8,332.2,249.1,331.3L249.1,331.3z"/>
			<path class="st15" d="M257.7,315.4l-6.9,20.9c1.2-1.3,2.5-2.9,2.9-3.7c0.6-1.1,4.4-11.8,6.1-16.7c0.1-0.3,0.2-0.6,0.2-0.9
				C259.6,315.4,258.7,315.5,257.7,315.4z"/>
			<path class="st8" d="M242.8,308.5c0,0-5,14-5.6,15.7c-0.6,1.7-0.1,7.7,0.4,7.5c0.2-0.1,1.2-0.9,2.2-2l0,0l7.5-19.5
				c-0.4-0.1-0.9-0.2-1.3-0.4c-1.4-0.5-2.4-1.4-2.7-2.2C243,308,242.9,308.2,242.8,308.5L242.8,308.5z"/>
			<path class="st13" d="M247.6,305.7c1.8,0.7,2.9,1.9,2.6,2.8s-2,1.1-3.8,0.4c-1.8-0.7-2.9-1.9-2.6-2.8
				C244.1,305.2,245.8,305,247.6,305.7L247.6,305.7z"/>
			<path class="st14" d="M238.3,324.9c0.4-0.9,6-15.9,6-15.9c-0.6-0.4-1-0.9-1.2-1.3c-0.1,0.2-0.2,0.5-0.3,0.8c0,0-5,14-5.6,15.7
				c-0.5,1.5-0.2,6.3,0.2,7.3C237.3,331.6,237.9,325.8,238.3,324.9L238.3,324.9z"/>
			<path class="st8" d="M234.1,302.8c0,0-5.5,13.6-6.2,15.3c-0.6,1.7-0.4,7.6,0.1,7.4c0.2-0.1,1.2-0.9,2.2-1.9l8.1-19
				c-0.4-0.1-0.9-0.2-1.3-0.4c-1.4-0.6-2.4-1.4-2.7-2.2C234.3,302.3,234.2,302.5,234.1,302.8L234.1,302.8z"/>
			<path class="st13" d="M239,300.2c1.7,0.7,2.9,2,2.5,2.9c-0.4,0.9-2.1,1-3.8,0.3c-1.7-0.7-2.9-2-2.5-2.9
				C235.5,299.6,237.2,299.5,239,300.2z"/>
			<path class="st14" d="M229.1,318.8c0.4-0.8,6.5-15.4,6.5-15.4c-0.6-0.4-0.9-0.9-1.1-1.3c-0.1,0.2-0.3,0.5-0.4,0.7
				c0,0-5.5,13.6-6.2,15.3c-0.6,1.5-0.4,6.2-0.1,7.2C227.9,325.3,228.7,319.6,229.1,318.8L229.1,318.8z"/>
			<path class="st8" d="M227.1,297.3c0,0-5,12.3-5.6,13.8c-0.6,1.5-0.3,6.8,0.1,6.7c0.2-0.1,1.1-0.8,2-1.7L231,299
				c-0.4-0.1-0.8-0.2-1.2-0.4c-1.2-0.5-2.1-1.3-2.4-2C227.3,296.9,227.2,297.1,227.1,297.3z"/>
			<path class="st4" d="M231.4,295c1.6,0.6,2.6,1.8,2.3,2.6s-1.9,0.9-3.4,0.3c-1.6-0.6-2.6-1.8-2.3-2.6
				C228.3,294.5,229.9,294.3,231.4,295L231.4,295z"/>
			<path class="st14" d="M222.5,311.8c0.4-0.8,5.9-13.9,5.9-13.9c-0.5-0.4-0.9-0.8-1-1.2c-0.1,0.2-0.2,0.4-0.3,0.7
				c0,0-5,12.3-5.6,13.8c-0.5,1.3-0.4,5.6,0,6.5C221.4,317.6,222.2,312.5,222.5,311.8z"/>
			<path class="st14" d="M220.7,305.3c0.3-0.6,5.1-11.3,5.1-11.3c-0.5-0.3-0.9-0.7-1.1-1c-0.1,0.2-0.2,0.3-0.3,0.5
				c0,0-4.3,10-4.8,11.2c-0.4,1.1-0.1,4.5,0.3,5.3C219.9,310,220.3,305.9,220.7,305.3L220.7,305.3z"/>
			<path class="st16" d="M224.6,299.3l1.1,0.2c0.4,1.4,0.5,2.5,1.6,3.6c0.8,0.8,2.1,1.5,3.2,1.8l1.4,0.3l0.1,1.5
				c0.1,1.3,1.2,2.8,2.1,3.6c0.7,0.6,1.5,1.2,2.4,1.4c0.7,0.2,1.5,0.2,2.1,0.6c0.6,0.4,1,1.3,1.5,2c0.7,0.9,1.5,1.7,2.4,2.3
				c0.9,0.6,1.9,1,3,1.2c0.8,0.1,1.8,0.1,2.5,0.3c0.9,0.3,2,1.3,2.7,1.9c1,0.8,2,1.5,3.1,2.1c0.7,0.3,1.6,0.7,2.4,0.7
				c0.4,0,0.8-0.1,1.2,0c1.3,0.2,2,1.4,1.7,2.7c0,0.1-0.1,0.3-0.1,0.4c-0.1,0.3-0.2,0.6-0.3,0.9c-0.2,0.4-0.3,0.8-0.5,1.2l-0.4,1
				l-1,0.2c-1.8,0.4-4.4-0.3-6-1c-1.2-0.5-2.4-1.2-3.4-2.1c-0.4-0.3-0.8-0.7-1.2-1.1c-0.2,0-0.4,0-0.6-0.1c-0.7-0.1-1.3-0.2-2-0.4
				c-2-0.5-3.8-1.5-5.3-2.8c-1-0.9-2.1-1.9-2.9-3c-0.2-0.3-0.4-0.6-0.5-0.9c0,0-0.1,0-0.1,0c-0.5-0.1-1.1-0.2-1.6-0.4
				c-1.5-0.5-2.8-1.3-3.9-2.5c-0.9-0.9-1.5-2-2-3.2c-0.1-0.3-0.3-0.7-0.4-1c-0.3-0.1-0.6-0.2-0.9-0.3c-1.2-0.5-2.1-1.3-2.9-2.4
				c-0.9-1.2-1.3-2.2-1.6-3.6c-1-0.6-2-1.4-2.5-2.5c-0.6-1.4-0.1-3.2,0.7-4.4l1.6-2.5C221.8,297.1,223.2,299,224.6,299.3
				L224.6,299.3z"/>
			<path class="st13" d="M221.4,298.5c0,0,0.1,1,0.9,1.8c0.8,0.8,2,1,2,1s-0.2,1.4,1.5,3.2c1.8,1.8,4.2,2.3,4.2,2.3s0.3,2.7,2.7,4.9
				c2.4,2.2,4.5,2,4.8,2.2c0.3,0.2,1.1,2.3,3.9,4.3c2.8,1.9,5.4,1.5,6.1,1.7s2.8,2.6,5.5,3.8c2.7,1.3,4.1,0.9,4.2,0.9
				c0.1,0-0.9,2.4-0.9,2.4s-1.8,0.4-4.8-0.9c-3-1.3-4.1-3-4.6-3.2c-0.5-0.2-4,0-7.5-2.8c-3.5-2.9-2.9-3.9-3.4-4.1
				c-0.5-0.2-3.5-0.3-5.4-2.5c-2-2.2-2.1-4.5-2.4-4.6c-0.4-0.1-2.2-0.1-3.6-2.1c-1.4-2-1.3-3.6-1.5-3.7c-0.1-0.1-2-1-2.4-2.1
				C220.4,299.9,221.4,298.5,221.4,298.5L221.4,298.5z"/>
			<path class="st8" d="M265.6,316.6l-4.4,15.3l17.5,3.8c0,0-1.9-5.4-1.8-10.3c0.1-4.8,2.3-8,2-8.1c-0.3-0.1-10.3-1.5-11.5-2
				c-1.3-0.4-1.2-1-1.3-0.8S265.6,316.6,265.6,316.6z"/>
			<path class="st8" d="M324.5,317.8c0,0,1.5,2.2,1.9,6.9c0.4,4.7-1.8,9.9-1.4,10.1c0.4,0.1,19.4-3.5,19.4-3.5l0.1,2.3
				c0,0,7.8-1.3,8-6.3c0.2-4.9-2-15.5-3-16.4c-1.1-0.9-4.3-0.4-5.7,0.1c-1.4,0.6,0.1,3.7,0.2,6.2c0,2.5-0.6,4.7-0.8,4
				s-1.2-3.6-2.1-4.9c-0.9-1.3-0.9-1.4-1.4-1.4C339,315.1,324.4,317.8,324.5,317.8L324.5,317.8z"/>
			<path class="st8" d="M352.9,311c0,0,1.7,6.5,2.2,10.7c0.4,4.1,0.3,6.1,0.3,6.1s13.1-5.3,17.2-11.7c4-6.4,0.1-17.3,0.1-17.3
				s-1.6,2.5-4.3,4.2C365.6,304.8,352.9,311,352.9,311L352.9,311z"/>
			<path class="st4" d="M377.8,295.3c0,0,2.4,13.3,3.5,15.3c1.1,2,4.8,2.6,10.5,2c5.8-0.7,6.9-3.1,6.6-4.6
				c-0.3-1.5-3.6-17.4-4.4-18.8s-10.5-1.1-9.2-0.6c1.3,0.4,5.8,0.4,6.8,1.1c1,0.7,1.2,4.5,1,5.2c-0.2,0.6-5,2.2-8.9,2.1
				c-4-0.1-5.8-2.6-6-2.6C377.5,294.2,377.8,295.3,377.8,295.3L377.8,295.3z"/>
			<path class="st17" d="M339.7,327c-3.7,1.1-11.7,2.2-11.9,2s0.3-3.5-0.3-5.3c-0.6-1.8-2.2-4.1-2.2-4.1c0.4,1.1,0.9,2.8,1,5.1
				c0.4,4.7-1.8,9.9-1.4,10.1c0.4,0.1,19.4-3.5,19.4-3.5l0.1,2.3c0,0,0.9-0.2,2.1-0.5c1.5-16.3-3.2-21.7-3.2-21.7
				c-0.7,1,0.5,3.7,0.6,5.9c0,2.5-0.6,4.7-0.8,4c0,0,0.3,3.8,0.3,4.2C343.3,326,343.4,325.9,339.7,327L339.7,327z"/>
			<path class="st17" d="M278.7,335.8c0,0-1.9-5.4-1.8-10.3c0-1.8,0.3-3.3,0.7-4.6c-2.6,1.6-2.5,5.5-3.9,6.7
				c-1.4,1.2-8.2-0.7-8.2-2.1c0-1.5,2-10,2-10c-0.1,0-0.2,0-0.2-0.1c-1.3-0.4-1.2-1-1.3-0.8c-0.1,0.2-0.5,2-0.5,2l-4.4,15.3
				L278.7,335.8L278.7,335.8z"/>
			<path class="st17" d="M368.4,312.7c-0.9,1.9-10.3,7.9-10.7,7.9c-0.4,0,0-0.8-1.1-4c-1.1-3.2-3.2-3.6-3.2-3.6
				c0.5,2.3,1.4,5.9,1.7,8.6c0.4,4.1,0.3,6.1,0.3,6.1s13.1-5.3,17.2-11.7c4-6.4,0.1-17.3,0.1-17.3s-1.6,2.5-4.3,4.2
				c-0.2,0.1-0.3,0.2-0.6,0.3C368.4,305.8,369.1,311.2,368.4,312.7L368.4,312.7z"/>
			<path class="st13" d="M381,296.3l3.6,16.2c1.8,0.4,4.2,0.4,7.2,0c5.8-0.7,6.9-3.1,6.6-4.6c-0.3-1.5-3.6-17.4-4.4-18.8
				c-0.8-1.3-10.5-1.1-9.2-0.6c1.3,0.4,5.8,0.4,6.8,1.1c1,0.7,1.2,4.5,1,5.2c-0.2,0.6-5,2.2-8.9,2.1
				C382.7,296.9,381.8,296.6,381,296.3L381,296.3z"/>
			<path class="st1" d="M260.9,134.9c0,0,2.2-2.2,7.5-2.6s8.3,1.4,8.3,1.4s0.4,2.8,7.5,6.8c7.1,4,8.9,4,10,3.8c1.1-0.2,1-3.7,1-3.7
				s1.8,1.5,2.3,3.8c0.5,2.3,0.4,2.6-0.1,3.3c-0.6,0.8-2.4,3.6-3.6,3.5s-2.6-0.1-2.6-0.1s-2.8,5.9-3.6,6s-7.6,1.6-15-3.7
				s-9-11.8-9-11.8s2.2-1.2,5.6-0.8c3.3,0.4,4.3,1.1,4.3,1.1s-3.6-4-6.6-5.3C263.8,135.3,260.9,134.9,260.9,134.9L260.9,134.9z"/>
			<path class="st5" d="M272.7,145.9c0,0,1.7,4.7,6.2,6c4.6,1.3,5.9-0.5,6.1-1.1c0.3-0.6,0.2-1,0-1.1
				C285,149.7,281.2,147,272.7,145.9L272.7,145.9z"/>
			<path class="st1" d="M295.2,160.1c0,0,0,3,1.5,4.7c1.5,1.7,5.5,4.8,5.5,4.8s4-3.1,5.5-4.8c1.5-1.7,1.5-4.7,1.5-4.7
				s-3.8-5.6-3.7-5.4c0.1,0.1,1.2,4.6,1.8,6.9c-1.6,1.3-2.4,1.8-5.2,2.4C298.5,163.2,298.3,162.6,295.2,160.1L295.2,160.1z"/>
			<path class="st1" d="M292.4,177.2c0,0,5,3,12.8,0.9C313,176,317,171,317,171s-0.6-1.9-1.2-2.9c-0.7-1-0.7-1-0.7-1
				s2.5-0.4,5.2,1.5s1,8.6,1,8.6l-1.5-2.8C319.8,174.3,306.6,189.9,292.4,177.2L292.4,177.2z"/>
			<path class="st18" d="M317.3,143.1c2.1-2.9,5.3-4.6,8-4.7c0.5,0,1,0,1.4,0.1c3.5,0.3,5.8,1.6,6,1.2c0.2-0.5-1.5-2.4-6.7-2.6
				c-5.2-0.2-8,2.3-9.1,2.7c-0.3,0.1-1.4,0-2.9-0.3l1.2,2.6L317.3,143.1L317.3,143.1z"/>
			<path class="st18" d="M345.6,159.7c1.1-4,1.5-7.3,1.8-7.9c0.4-1,4-3.4,4.4-4.4c0.4-1,0.4-11.7,0.5-12.8s-5.7-4.8-5.7-4.8
				s-0.9,19.2-0.9,19.5c0,0.3-0.5,0-1.3-0.7c-0.7-0.7-0.8-2.5-0.9-2.6c-0.1-0.1-3.3-0.1-3.5,0c-0.2,0.1,0.3,2.8-1.9,6.1
				c-0.2,0.3-0.4,0.5-0.6,0.8l4.3,1.4l0.3,0.2L345.6,159.7L345.6,159.7z"/>
			<path class="st18" d="M310.5,141c0.3,0.1-0.7,2.2-0.8,2.5c-0.1,0.3,2.6,12,3,12.8c0.4,0.8,19.7,9.7,20.2,10
				c0.5,0.2,4.8,5.5,4.7,5.9c-0.1,0.4-1.5,2.8-1.9,3.8c-0.4,1.1,3.2-2,3.2-2s1.6-2,4.4-8.3c0.7-1.6,1.3-3.2,1.8-4.7l-3.9-5.7
				l-4.4-1.5c-2.2,2.8-5.3,5.5-10.2,6.1c-5.9,0.7-12-5.6-11.5-11.3c0.1-1.7,0.7-3.3,1.5-4.7l-2.2-1.1l-0.2-0.2l-1.6-3.4
				c-3-0.5-6.7-1.3-8.9-1.8l0.9,1.9C306.8,139.9,310.3,140.9,310.5,141L310.5,141z"/>
			<path class="st19" d="M293.4,72.5c-23.8-0.4-35-8.3-39.6-12.9c0,0.1,0,0.2,0,0.3c-2,13-1.7,15.5-1.3,16
				c0.4,0.5,1.5,8.3,13.9,11.1c1.8,0.4,3.7,0.7,5.5,0.9c6.9,0.6,21.5-0.1,31-15.4l0,0C299.7,72.5,296.6,72.5,293.4,72.5L293.4,72.5z
				"/>
			<path class="st20" d="M349.2,63.6c-0.4,9.1-1.6,12.9-1.3,13.4c0.4,0.6,7.2,3,7.2-11.3c0-1.7-0.1-3.5-0.3-5.3
				C353.2,61.5,351.3,62.6,349.2,63.6L349.2,63.6z"/>
			<path class="st7" d="M292.2,65.6c-0.6,2.5-1.6,4.7-2.9,6.7c1.3,0.1,2.7,0.1,4.1,0.2c3.2,0.1,6.3,0,9.3,0
				c8.3-13.2,9-23.3,8.6-28.8c-0.3-1.8-0.6-3.1-0.6-3.8c-0.2-0.6-0.3-0.9-0.3-0.9c0.1,0,0.9-0.1,0.9-0.1l0.1,0l0.1,0
				c-34.2,2.1-44.4-6-44.3-10.1c0.1-3.6,5.4-5.2,6.6-5.6c-6.8,1.7-8.9,3-9.7,4.2c0,0.1-0.1,0.2-0.2,0.4c-0.6,1.2-2.1,5.5,3.3,9.7
				C273.7,42.4,296.8,46.8,292.2,65.6L292.2,65.6z"/>
			<path class="st20" d="M293.4,72.5c-1.4,0-2.8-0.1-4.1-0.2c-8.1,12.5-27.2,13.3-27.2,13.3c1.2,0.5,2.6,0.9,4.2,1.3
				c1.8,0.4,3.7,0.7,5.5,0.9c6.9,0.6,21.5-0.1,31-15.4l0,0C299.7,72.5,296.6,72.5,293.4,72.5L293.4,72.5z"/>
			<path class="st7" d="M287.8,110.8c-2.3,1.6-16.4,5.2-42-7.6c-25.6-12.8-32.8-25.8-32.8-25.8c1.9,3.8,4.8,8.6,9,14.3
				c10,13.2,34.9,26.5,54.6,30.8c15.9,3.4,37.6,6.2,63.1-1.6c24.3-11.2,29.4-23.7,29.4-23.7c-4.2,3.5-9.2,7-14.8,10.3
				c-16,9.5-46.5,14.8-48,9.7c-1.5-5.1,4.9-10.4,12.9-13.2c8-2.8,23.1-11,23.6-11.5c0.4-0.4-17,7.4-35.7,8.4
				c-18.7,1.1-36.2-5.2-36.9-5.3c-0.7-0.2,1.6,2.8,11.1,6.5c9.5,3.7,16.7,4,16.2,4.4c-0.5,0.4-6.1,1.5-10.2,1.2
				c-1.3-0.1-4.3-0.2-8.1-0.7C286.9,108.5,290.1,109.2,287.8,110.8L287.8,110.8z"/>
			<path class="st1" d="M356.3,215.2l1.4,2.2l2.7,0.4c0.9-0.9,2.1-1.4,3.5-1.4c2.8,0,5,2.2,5,5c0,2.8-2.2,5-5,5c-0.1,0-0.3,0-0.4,0
				l-1.6,1.9l0.3,2.2c1.7,0.8,2.8,2.5,2.8,4.5c0,2.8-2.2,5-5,5c-2.2,0-4.1-1.4-4.8-3.4l-2.5-1l-2.4,1.2c-0.4,2.3-2.5,4.1-4.9,4.1
				c-2.8,0-5-2.2-5-5c0-1.8,1-3.4,2.4-4.3l0.1-2.4l-2-2c-0.2,0-0.4,0-0.6,0c-2.8,0-5-2.2-5-5c0-2.8,2.2-5,5-5c1.3,0,2.5,0.5,3.4,1.3
				l2.3-0.6l1.2-2.3c-0.4-0.7-0.5-1.5-0.5-2.3c0-2.8,2.2-5,5-5c2.8,0,5,2.2,5,5C356.6,214,356.5,214.7,356.3,215.2L356.3,215.2z"/>
			<path class="st21" d="M352.6,215.1l3.3,5.1l6,1c0.1-1,1-1.7,2-1.7c1.1,0,2,0.9,2,2s-0.9,2-2,2c-0.5,0-1-0.2-1.4-0.6l-3.8,4.7
				l0.9,5.7c0.2,0,0.3-0.1,0.5-0.1c1.1,0,2,0.9,2,2c0,1.1-0.9,2-2,2s-2-0.9-2-2c0-0.2,0-0.4,0.1-0.6l-5.5-2.2l-5.4,2.7
				c0.1,0.3,0.2,0.6,0.2,0.9c0,1.1-0.9,2-2,2c-1.1,0-2-0.9-2-2c0-1.1,0.9-2,2-2c0.1,0,0.2,0,0.3,0l0.3-5.9l-4.3-4.4
				c-0.4,0.3-0.8,0.5-1.3,0.5c-1.1,0-2-0.9-2-2c0-1.1,0.9-2,2-2c1,0,1.9,0.8,2,1.8l5.7-1.5l2.8-5.3c-0.7-0.3-1.2-1-1.2-1.8
				c0-1.1,0.9-2,2-2s2,0.9,2,2C353.6,214.1,353.2,214.8,352.6,215.1L352.6,215.1z"/>
			<polygon class="st22" points="342.1,222.8 352.4,225 348,220.5 342.3,222 			"/>
			<polygon class="st5" points="351.8,215.1 352.4,225 355.8,220.2 352.6,215.1 			"/>
			<polygon class="st2" points="362.1,222.1 352.4,225 358.6,227.5 362.4,222.8 			"/>
			<polygon class="st2" points="358.7,233.9 352.4,225 352.5,232.4 358,234.5 			"/>
			<polygon class="st22" points="346.3,234.4 352.4,225 346,228.1 345.6,234 			"/>
			<path class="st1" d="M289.8,261.7c1.8,0,3.3,1.5,3.3,3.3c0,1.8-1.5,3.3-3.3,3.3c-1.8,0-3.3-1.5-3.3-3.3
				C286.5,263.2,287.9,261.7,289.8,261.7z"/>
			<path class="st1" d="M289.5,278.8c1.8,0,3.3,1.5,3.3,3.3c0,1.8-1.5,3.3-3.3,3.3c-1.8,0-3.3-1.5-3.3-3.3
				C286.2,280.2,287.7,278.8,289.5,278.8z"/>
			<path class="st1" d="M289.2,295.8c1.8,0,3.3,1.5,3.3,3.3c0,1.8-1.5,3.3-3.3,3.3c-1.8,0-3.3-1.5-3.3-3.3
				C285.9,297.3,287.4,295.8,289.2,295.8z"/>
			<path class="st1" d="M315.5,261.7c-1.8,0-3.3,1.5-3.3,3.3c0,1.8,1.5,3.3,3.3,3.3c1.8,0,3.3-1.5,3.3-3.3
				C318.8,263.2,317.4,261.7,315.5,261.7z"/>
			<path class="st1" d="M315.8,278.8c-1.8,0-3.3,1.5-3.3,3.3c0,1.8,1.5,3.3,3.3,3.3c1.8,0,3.3-1.5,3.3-3.3
				C319.1,280.2,317.6,278.8,315.8,278.8z"/>
			<path class="st1" d="M316.1,295.8c-1.8,0-3.3,1.5-3.3,3.3c0,1.8,1.5,3.3,3.3,3.3c1.8,0,3.3-1.5,3.3-3.3
				C319.4,297.3,317.9,295.8,316.1,295.8z"/>
			<path class="st23" d="M358.8,243.3c0,0.5-10.1,17.3-17.5,23.3c-7.4,6-10.2,6.9-9,7c1.2,0.1,13.1,0.9,13.8,2.3
				c0.7,1.4-15.2,29.2-25,36.5c0.3,0.2,10.5-1.3,13.8-2.2s3.8-1.1,3.8-1.1s1.7-1.9,4.6-2.8c2.9-0.9,6,0.1,6.7-0.2
				c0.7-0.3,13.9-7.2,15-8.1c1.1-1,3.4-6.1,3.5-6.7c0.1-0.6-1.8-2.7-1.8-2.7s-5.2,4.4-6.3,4.8c-1.1,0.4-4.1,0.9-4.1,0.9
				s5.2-3.6,5.6-3.8c0.4-0.2,4.9-4.3,5.4-5.5c0.5-1.2,1.2-3.8,1.2-4.2c-0.1-0.4-2.6-2-3.1-1.7s-18.8,15.8-19.1,15.4
				c-0.3-0.5,1.2-5.9,1.9-6.9c0.7-1,18.6-21.3,19-22.1c0.4-0.7,1.1-2.9,1.1-2.9s-3.7-3.1-5.1-3s-14.6,8.3-13.9,6.7
				c0.7-1.5,21.1-21.2,21.6-22.6c0.4-1.4-1.5-4.2-0.7-6.9c0.7-2.8,5-13.2,4.7-14.8c-0.3-1.6-5.1-12-6.4-18.9s-0.9-10.9-1.6-10.9
				c-0.7,0-1.8-0.2-2.7,0.1c-0.9,0.3-18.9,7.6-19.4,9.2c-0.4,1.3-14.1,15.6-19.4,21.1c1.7-1.2,22.9-15.6,27.1-18.1
				c4.3-2.5,5.9-2,6.4-1.2c0.5,0.7,3.5,11.5,3.5,11.5s-0.5,0.4-2,3.2c0.9-0.9,2.1-1.4,3.5-1.4c2.8,0,5,2.2,5,5s-2.2,5-5,5
				c-0.1,0-0.3,0-0.4,0l-1.6,1.9l0.3,2.2c1.7,0.8,2.8,2.5,2.8,4.5c0,2.8-2.2,5-5,5c-2.2,0-4.1-1.4-4.8-3.4l-2.5-1l-2.4,1.2
				c-0.4,2.3-2.5,4.1-4.9,4.1c-2.8,0-5-2.2-5-5c0-1.8,1-3.4,2.4-4.3l0.1-2.4l-2-2c-0.2,0-0.4,0-0.6,0c-2.8,0-5-2.2-5-5
				c0-0.4,0-0.7,0.1-1.1c0,0-1.3,3.7,0.4,5.8c1.7,2.1,3.8,1.7,4,1.8s1.4,1,1.4,1l0.1,1.2c0,0-2.9,1.8-2.4,5.9c0.6,4.1,5,6.1,8.1,5.3
				c3.2-0.8,4.1-4,4.1-4l1.6-1l1.3,0.7c0,0,0.4,1.4,1.5,2.1c1,0.7,1.9,0.7,1.9,0.7S358.8,242.8,358.8,243.3L358.8,243.3z"/>
			<path class="st23" d="M251.6,280.7l-12.2-5.9c0,0,0.2,2.3-0.3,4.3c-0.5,1.9-2.4,5.2-2.3,6.4c0.1,1.2,7.4,8.2,8,9.3
				c0.6,1.1-5.7-3.9-6.1-3.9c-0.4,0-0.4-0.3-1.1,0.2c-0.7,0.6-1.7,4.5-1,5.3c0.6,0.8,1.3-0.5,4,0.9c2.6,1.3,3.2,3.7,4,4.3
				c0.8,0.6,3.1-0.4,5.1,0.6c2,1.1,2.7,2.8,4.4,3.6c1.7,0.8,3.1-1.1,5.7,0.1c2.1,0.9,3.8,2.1,4.8,3.1c-7.9-7.5-13.5-21.6-12.9-23.8
				c0.6-2.2,5.2,0,5.2,0L251.6,280.7L251.6,280.7z"/>
			<path class="st23" d="M234.3,238.1c1,2.4,8.1,10.1,13.1,15.4c0,0-4.8-11.3-5.6-13.9c-0.8-2.6-0.1-6.5,0.4-8.5
				c0.4-2,14.1,8.2,15,8.7s-14.7-18.3-14.7-18.3c-8.8-12.6-13.8-23.2-13.8-23.2s-0.2,2.3,1.5,8.5c1.7,6.2,5.2,16.2,5,17.9
				c-0.2,1.7-1.2,4.5-2.7,6.2C231,232.6,232.8,234.4,234.3,238.1L234.3,238.1z"/>
			<path class="st23" d="M249.4,258.2c-3.7-1.8-9.7-5.3-10.4-5.5c-1-0.3-2.1,6.9-2.6,8.9c-0.4,1.9,14.1,10.9,16.9,13
				c1.5,1.1,4,5.4,6.1,9.2c0,0-1.1-4.1-2.9-8.3c-1.8-4.2-9.6-12.1-9.6-13.8c0.1-1.7,3-3,3-3S249.8,258.5,249.4,258.2L249.4,258.2z"
				/>
			<path class="st21" d="M336.9,153.8c-2.2,2.8-5.3,5.5-10.2,6.1c-5.9,0.7-12-5.6-11.5-11.3c0.1-1.7,0.7-3.3,1.5-4.7l-2.2-1.1
				l-0.2-0.2l-1.6-3.4c-0.4-0.1-0.8-0.1-1.2-0.2l1.9,4.3l1.4,0.9c0,0-1.5,2.6-1.1,6.3c0.4,3.6,2.4,5.7,2.4,5.7s-2.4-1.2-2.8-1.6
				c-0.4-0.4-1.8-2.7-1.8-2.7c0.5,2.2,1,4.2,1.2,4.5c0.4,0.8,19.7,9.7,20.2,10c0.4,0.2,3,3.3,4.2,5c0,0-0.8-3-1-3.4
				c-0.2-0.4-1.8-2.5-2.3-2.7c-0.5-0.2-6.4-3.2-6.4-3.2s2.7-0.4,6-2c3.2-1.6,3.9-3.2,3.9-3.2s2.8,1.1,3.4,1.4
				c0.4,0.2,2.7,2.4,4.1,3.9c0.1-0.3,0.2-0.6,0.3-0.9l-3.9-5.7L336.9,153.8L336.9,153.8z"/>
			<path class="st8" d="M203,133c-3.4-1.2-37.2-11.9-40.5-12.7c-3.3-0.8-10.9,0.3-10.3,0.9c0.4,0.4,6.4,4.3,11,7.4c3,2,5.3,3.8,5,4
				c-0.8,0.5-62.7-28.8-66.5-30.1c-3.8-1.2-12.1-1.2-11-1.9c1.1-0.6,6.6-2.5,6.9-3.2c0.4-0.7,0-11.1,0-11.1s0.8-2,3.3-0.4
				c2.5,1.6,14.2,12.7,14,11.4c-0.3-1.3-12.3-16.5-12.9-16.8c-0.6-0.4-11.2,0.1-11.2,0.1s-2-0.2-2.2,1.8c-0.2,2-0.3,18.5-0.6,18.9
				c-0.3,0.4-2.3,1-4.4,2.7c-2,1.7-2.9,3-3.1,3c-0.1,0-6.4-6-8.1-15.7l0.1,0.3c0,0-1.5,2.7-1.4,8.4c0,2.1,0.4,4,0.9,5.6l-0.1-0.2
				c0.4,0.5,0.7,0.9,1.1,1.4c5.2,6.2,11.5,9.3,15.8,10.7c4.3,1.4,9.7,1.5,9.1,1.1c-0.6-0.4-4.8-1.6-8.6-3.8
				c-3.9-2.2-2.9-2.8-2.4-3.7c0.5-0.8,6.5-5.5,14.2,1c7.7,6.5,7.3,22-1.9,26.4c-9.2,4.4-15.7-2.9-17.3-8.7c-1.5-5.8,0.3-8.4-0.3-9.7
				c-0.6-1.3-3.9-2.5-4.8-2.3c-0.9,0.2-2.8,7.7,1,17.3c3.7,9.6,12.7,12.5,13.3,13.4c0.6,0.9,1.2,6,1.5,6.6
				c0.3,0.6,55.7,10,54.3,10.4c-1.3,0.4-4.6,2.4-4.6,2.4s0.1,11.9,0.5,13.5c0.4,1.6,2.3,7.2,9.2,10.2c6.9,3,19.7,4.4,18.3,3
				c-1.4-1.3-10.7-6.6-13.1-11.4c-2.4-4.8,1.2-20.4,0.5-21.5c-0.7-1.2-0.7-1.5-1.8-1.7c-1.1-0.2-55.7-14.9-55.7-14.9
				s-1.1-0.4,0.5-1.2c1.2-0.6,4.9-2.9,7.6-7.3c7.3,2.6,31.4,11.1,37.4,12.7c7.1,1.9,10.7,1.5,11.7,1.5c0.9,0-38.9-14.4-47.5-17.6
				c0.3-0.8,0.5-1.6,0.7-2.4c1.8-8.1-0.4-12.9-1.3-14.9c-0.9-2,1.8,0.4,3.3,2.4c1.5,2,1.7,3.7,2,3.8c0.3,0.1,53,20.6,53,20.6
				s2,2.2,0.1,5.5s-5.3,3.8-5.5,4.2c-0.2,0.4,1.1,1.8,0.7,4.8c-0.4,3-1.4,4.6-1,4.4c0.4-0.3,3.1-2,3.7-4.2c0.5-2.2-0.4-3.2-0.1-3.5
				c0.4-0.3,5-1.6,6-6.6c1-5-1.1-9-1.1-9s15.3,4.5,17,5.1s3.2,3.2,3.4,3.9c0.2,0.7,0.3,0.9,0.4,1c0.1,0.1,10.3,3.2,10.3,3.2
				s3.1,1.7,3.4,6.4c0.3,4.7-2.8,7.6-4.3,6.4c-1.5-1.2-0.4-1.6-0.5-3.5c-0.1-1.9-1.1-2.2-1.4-2.3c-0.3-0.1-5.8-1-6.2-1.6
				c-0.4-0.7-1.2-4-1.6-3.8c-0.4,0.1,0.2,1.3-0.4,4.1c-0.6,2.8-1.9,4.2-1.8,4.5c0.1,0.3,9.9,3.7,9.1,3.7c-0.8,0-9.8-1.2-9.8-1
				c0,0.3,0.2,1.3-1.4,3c-1.6,1.8-5.5,2.4-5,2.5c0.5,0.1,15.4,3.9,15.4,3.9s9.6-0.9,11.6-11.6c2-10.7-3.9-16.2-3.9-16.2l-26.3-8.9
				c0,0-2.4-1.6-2.1-3.9s5.2-2.4,6.5-2.3c1.2,0.1,27,8.2,27,8.2C208.7,136.7,205.9,134,203,133L203,133z M71.4,104.7
				c0.1,0.1,0.1,0.2,0.2,0.3L71.4,104.7z"/>
			<path class="st5" d="M101.6,102.5c3.3,1.1,49.9,23.1,63.1,28.8c0,0,7.1,4.6,7.5,5.2c0.4,0.6-53.9-20.1-53.9-20.1s1.7,1.9,4.1,9
				c-4.6-1.8-7.6-3-7.7-3c-0.3-0.1-0.5-1.9-2-3.8c-1.5-2-4.2-4.4-3.3-2.4c0.9,2,3.1,6.7,1.3,14.9c-0.2,0.8-0.4,1.6-0.7,2.4
				c0,0-1,2.5-1.6,3.4c0,0,0,0,0,0c-2.6,4.4-6.4,6.7-7.6,7.3c-0.4,0.2-0.6,0.3-0.7,0.5c0,0-6.5,3.5-13.8,1c-2.9-2-6.5-5.2-8.6-10.5
				c-3.7-9.6-1.9-17.1-1-17.3c0.9-0.2,4.3,1,4.8,2.3c0.6,1.3-1.2,4,0.3,9.7c1.5,5.8,8.1,13.2,17.3,8.7c9.2-4.4,9.6-19.9,1.9-26.4
				c-7.6-6.5-13.7-1.9-14.2-1c-0.5,0.8-1.5,1.5,2.4,3.7c3.9,2.2,8,3.4,8.6,3.8c0.6,0.4-4.8,0.4-9.1-1.1c-4.3-1.4-10.5-4.5-15.8-10.7
				c-0.4-0.4-0.7-0.9-1.1-1.4l0.1,0.2c-0.5-1.6-0.9-3.5-0.9-5.6c-0.1-5.6,1.4-8.4,1.4-8.4c0-0.1,0-0.2-0.1-0.3
				c1.8,9.8,8,15.7,8.1,15.7c0.1,0,1-1.3,3.1-3c2-1.7,4.1-2.3,4.4-2.7c0.3-0.4,0.4-17,0.6-18.9c0.2-2,2.2-1.8,2.2-1.8
				s10.5-0.5,11.2-0.1c0.6,0.4,12.6,15.5,12.9,16.8c0.3,1.3-11.5-9.8-14-11.4c-2.5-1.6-3.3,0.4-3.3,0.4s0.4,10.4,0,11.1
				c-0.4,0.7-5.9,2.6-6.9,3.2C89.5,101.2,97.7,101.2,101.6,102.5L101.6,102.5z M71.6,105c-0.1-0.1-0.1-0.2-0.2-0.3
				C71.4,104.8,71.5,104.9,71.6,105z"/>
			<path class="st4" d="M84.1,69.4c-1.5,11.1-12.9,8-12,19.4c0.1,1,0.2,2,0.4,2.9c0,0-1.5,2.7-1.4,8.4c0,2.1,0.4,4,0.9,5.6
				c-4.7-6.2-7.9-15.1-5.3-21.1c2.8-6.4,12.4-9.7,13.4-16.1c1-6.4-4.8-10.5-5.9-11.4C73.2,56.1,85.6,58.3,84.1,69.4L84.1,69.4z"/>
			<path class="st2" d="M144.7,174.8c0-2.3,1.4-2.2,1.4-2.2l10.5,0.7c-0.4,4-0.4,7.9,0.6,10c2.4,4.8,11.7,10.1,13.1,11.4
				c1.4,1.3-11.4,0-18.3-3c-3.4-4.4-6.9-8.8-7-10C144.9,180.3,144.7,177.1,144.7,174.8L144.7,174.8z"/>
			<path class="st2" d="M157.4,166.6l-10.6-1.2c1.3-0.4-54.1-9.8-54.3-10.4c-0.3-0.6-0.9-5.7-1.5-6.6l66.8,14.5
				C157.7,163.8,157.6,165.1,157.4,166.6L157.4,166.6z"/>
			<path class="st3" d="M151.8,129l2,8.5c-4.9-1.9-10.5-4.1-15.9-6.2c-0.5-2.4-1.3-6.2-1.7-8.2C141.2,125,146.6,127.1,151.8,129
				L151.8,129z"/>
			<path class="st5" d="M210.1,139.4c0,0-25.8-8.1-27-8.2c0,0-16.7-7-21.3-6.9c-1.9,0.1-3,0.4-3.7,0.7c-3-2-5.5-3.7-5.8-3.9
				c-0.6-0.6,7-1.7,10.3-0.9c3.3,0.8,37.1,11.6,40.5,12.7C205.9,134,208.7,136.6,210.1,139.4L210.1,139.4z"/>
			<path class="st3" d="M188.2,164.7c0-0.3,9,1,9.8,1c0,0,0,0,0,0l8.6,2.6c-3.5,5.4-9.4,5.9-9.4,5.9s-14.9-3.8-15.4-3.9
				c-0.5-0.1,3.4-0.8,5-2.5C188.3,165.9,188.2,164.9,188.2,164.7L188.2,164.7z"/>
			<path class="st9" d="M182.1,177.1c0,0-3,1.3-6.6,0.9c-3.6-0.4-10-1.9-11.6-2c-1.6-0.2-2.6,0.7-2.6,0.7s0,3.7,1.5,6
				c1.6,2.3,10.9,7.6,11.3,7.6c0.5,0,10,1.1,12-5.3C188.1,178.5,182.1,177.1,182.1,177.1L182.1,177.1z"/>
			<path class="st10" d="M136.6,173.1c0,0-0.1,6.8,0.7,9.6c0.8,2.8,3.1,4.3,2.7,4.5c-0.4,0.2-1.7-0.3-2.1-0.4
				c-0.4-0.2-4.2-1.9-5.2-5.2c-1-3.3-0.8-5.8-0.8-5.8s0-1.4,1.4-2.2C134.8,172.6,136.6,173.1,136.6,173.1L136.6,173.1z"/>
			<path class="st11" d="M178.3,198.4c0,0-0.9,2.5-3.1,2.5s-13.2,0.3-19.7-1.9c-6.5-2.1-10.1-5.8-10.7-5.2c-0.5,0.7,2.2,10,9.2,13.8
				c7,3.8,21.1,2.7,22.6,2s4.6-2.7,4.5-6.9C181,198.4,178.3,198.4,178.3,198.4L178.3,198.4z"/>
			<path class="st11" d="M181.1,214.6c0,0-1.2,2.2-4.3,2.7c-3.1,0.4-16.2,0.8-21.5-1.1c-5.3-1.9-6.5-3.5-6.5-3.5s2,10.8,7.5,13.3
				c5.5,2.5,20.7,1.3,22.8,0.4C181.1,225.6,184.1,219.7,181.1,214.6L181.1,214.6z"/>
			<path class="st11" d="M182.1,232.3c0,0-3,3.2-6.1,3.4s-15,0.9-18.1-0.2c-3.1-1.1-3.4-1.8-3.4-1.8s0.4,6.1,4.6,9.8
				s6.3,3.5,10.2,3.3c4-0.2,9.7,0.4,12.1-3.7C183.9,239,183.8,235.3,182.1,232.3L182.1,232.3z"/>
			<path class="st11" d="M191.6,192c0,0-1,7.8-0.9,16.3c0.1,8.4,1.1,14.9,2,14.5c1-0.4,10.8-2.1,12.2-11.2
				c1.4-9.1,0.4-18.5-2.9-21.1C198.7,187.9,191.7,187.8,191.6,192L191.6,192z"/>
			<path class="st5" d="M168.9,236c3.1-0.1,5.8-0.3,7.1-0.3c3.1-0.1,6.1-3.4,6.1-3.4c1.7,3,1.8,6.7-0.6,10.8
				c-1.8,3.1-5.5,3.5-8.8,3.6L168.9,236L168.9,236z"/>
			<path class="st5" d="M179.1,226.4c-0.9,0.4-4.6,0.9-8.9,1l-3.2-9.8c4.3,0.1,8.3-0.1,9.9-0.3c3.1-0.4,4.3-2.7,4.3-2.7
				C184.1,219.7,181.1,225.5,179.1,226.4L179.1,226.4z"/>
			<path class="st5" d="M176.6,209.6c-0.8,0.4-5,0.9-9.8,0.7l-3.9-9.9c5.4,0.6,10.8,0.4,12.3,0.4c2.2,0,3.1-2.5,3.1-2.5
				s2.7,0,2.8,4.3C181.2,206.9,178.1,208.8,176.6,209.6L176.6,209.6z"/>
			<path class="st5" d="M197,221.3c-0.4-9.5-0.9-25.8-0.6-27.9c0.4-2.9,2.9-4.3,2.9-4.3c1,0.3,2,0.8,2.7,1.4
				c3.3,2.6,4.4,12,2.9,21.1C204.1,217,200.2,219.8,197,221.3L197,221.3z"/>
			<path class="st5" d="M186.1,185.2c-1.1,0-2.4-0.3-3.6-1.1c-3.1-2-2.5-2.8-3.9-3.2c-1.4-0.4-11-1.1-12.2-2.2s-0.2-2.4,1.2-2.1
				c0,0,0,0,0,0c2.5,0.5,5.7,1.1,7.9,1.4c3.6,0.4,6.6-0.9,6.6-0.9s6,1.4,4,7.8C186.1,185,186.1,185.1,186.1,185.2L186.1,185.2z"/>
			<path class="st3" d="M179.8,144.3c-1.2,0-2.3,0.4-3.3,1l0,0l0,0c-0.2,0.2-0.2,0.5,0.1,0.9c0.3,0.4,1.1,0.1,1.2,0.1l0,0l0,0l0,0
				l0,0h0h0h0l0,0c0.4-0.1,0.8-0.2,1.2-0.2c2.1,0,3.7,1.7,3.7,3.7s-1.7,3.7-3.7,3.7c-1,0-2-0.4-2.6-1.1c-0.7-0.5-1.1-0.1-1.4,0.2
				c-0.3,0.3,0,0.9,0,0.9c1.1,1.5,2.8,2.5,4.8,2.5c3.2,0,5.8-2.6,5.8-5.8C185.6,146.9,183,144.3,179.8,144.3L179.8,144.3z"/>
			<path class="st3" d="M176.3,158.5c-1-0.1-2,0-2.8,0.4l0,0l0,0c-0.2,0.1-0.3,0.4,0,0.8c0.2,0.3,0.9,0.2,1,0.2l0,0h0h0l0,0h0h0h0
				l0,0c0.3-0.1,0.7-0.1,1,0c1.7,0.3,2.9,1.8,2.6,3.5c-0.3,1.7-1.8,2.9-3.5,2.6c-0.8-0.1-1.6-0.6-2-1.2c-0.5-0.5-0.9-0.2-1.1,0
				c-0.3,0.2-0.1,0.7-0.1,0.7c0.7,1.4,2,2.4,3.6,2.6c2.7,0.4,5.1-1.4,5.5-4.1C180.8,161.4,179,158.9,176.3,158.5L176.3,158.5z"/>
			<path class="st12" d="M66.3,55.2c0,0,0-0.9-0.5-2S64.1,52,63.6,52c-0.5,0-13.5,1.1-14,0.8c-0.4-0.4-1-2.2-3.2-2.8
				c-2.1-0.6-4.9,0-5.2,0c-0.2,0.1-0.6,0.3-0.4,0.3c0.2,0,3.8,0,5.3,2.5c1.6,2.4,2.7,6.4,2.7,6.4s2.3,1.1,2.7,0.9
				C52,59.9,66.3,55.2,66.3,55.2L66.3,55.2z"/>
			<path class="st5" d="M44.3,55.3c0,0-9.1,6.2-9.6,6c-0.5-0.2-6-1.6-6-1.6l8.8-7.7c0,0,2.6-0.3,4.2,0.5
				C43.4,53.3,44.3,55.3,44.3,55.3L44.3,55.3z"/>
			<path class="st8" d="M46.1,61.1c0,0-9.4,3.6-10,3.2c-0.5-0.4-12.6-3.4-12.6-3.4s5.4-4.5,5-4.4c-0.4,0.1-14,4.6-14.1,4.7
				c-0.1,0.1-0.9,13-0.6,13c0,0,0.6,0.2,1.6,0.5v-6.9l2.4,0.7v7l2.8,0.9v-7l2.4,0.7v7.1l2.8,0.9v-7.2l2.4,0.7v7.3
				c1,0.3,1.9,0.6,2.8,0.9v-7.3l2.4,0.7v7.4c1.8,0.6,3,0.9,3,0.9c0.2-0.3,0.6-11.7,0.3-12c-0.3-0.2-17.6-6.3-17.9-7
				c-0.4-0.7,18,4.4,18.6,4.2c0.6-0.2,9.4-3.6,9.4-3.6s-0.8,12.8-0.5,12.5c0.3-0.3,1.5-0.9,1.5-2.9c0-2,0.8-10.5,0.5-10.8
				C47.7,61.6,46.1,61.1,46.1,61.1L46.1,61.1z"/>
			<path class="st4" d="M47.4,55.1l18.1-2.4c0.1,0.1,0.2,0.3,0.3,0.5c0.5,1.1,0.5,2,0.5,2S52,59.9,51.5,60c-0.4,0.2-2.7-0.9-2.7-0.9
				S48.3,57.1,47.4,55.1L47.4,55.1z"/>
			<path class="st4" d="M326.4,143c3.4,0,6.2,2.8,6.2,6.2c0,3.4-2.8,6.2-6.2,6.2s-6.2-2.8-6.2-6.2C320.2,145.8,323,143,326.4,143z"
				/>
			<path class="st12" d="M326.7,144.8c2.6,0,4.7,2.1,4.7,4.7c0,2.6-2.1,4.7-4.7,4.7c-2.6,0-4.7-2.1-4.7-4.7S324.1,144.8,326.7,144.8
				z"/>
			<path class="st24" d="M326.7,146c1.9,0,3.5,1.6,3.5,3.5c0,1.9-1.6,3.5-3.5,3.5c-1.9,0-3.5-1.6-3.5-3.5
				C323.2,147.6,324.7,146,326.7,146z"/>
			<path class="st25" d="M326.7,146.3c1.7,0,3.1,1.4,3.1,3.1c0,1.7-1.4,3.1-3.1,3.1c-1.7,0-3.1-1.4-3.1-3.1
				C323.5,147.7,324.9,146.3,326.7,146.3z"/>
			<path class="st26" d="M326.7,146.6c1.6,0,2.8,1.3,2.8,2.8c0,1.6-1.3,2.8-2.8,2.8c-1.6,0-2.8-1.3-2.8-2.8
				C323.8,147.9,325.1,146.6,326.7,146.6z"/>
			<path class="st5" d="M326.7,146.9c1.4,0,2.6,1.2,2.6,2.6c0,1.4-1.2,2.6-2.6,2.6s-2.6-1.2-2.6-2.6
				C324.1,148,325.2,146.9,326.7,146.9z"/>
			<path class="st12" d="M333.6,146.5c0.2,0.4,0.3,0.9,0.4,1.4c0.7,4.2-2.1,8.2-6.3,8.9c-4.2,0.7-8.2-2.1-8.9-6.3l0-0.1
				c1.3,3.4,4.8,5.5,8.5,4.9C331.4,154.6,334.2,150.7,333.6,146.5L333.6,146.5z"/>
			<path class="st5" d="M14.4,61.2c-0.1,0.1-0.9,13-0.6,13c0,0,0.6,0.2,1.6,0.5v-6.9l2.4,0.7v7l2.8,0.9v-7l2.4,0.7v7.1l2.8,0.9v-7.2
				l2.4,0.7v7.3c1,0.3,1.9,0.6,2.8,0.9v-7.3l2.4,0.7v7.4c1.8,0.6,3,0.9,3,0.9c0.2-0.3,0.6-11.7,0.3-12c-0.3-0.2-17.6-6.3-17.9-7
				L14.4,61.2L14.4,61.2z"/>
			<path class="st5" d="M590.9,61.2c0.1,0.1,0.9,13,0.6,13c0,0-0.6,0.2-1.6,0.5v-6.9l-2.4,0.7v7l-2.8,0.9v-7l-2.4,0.7v7.1l-2.8,0.9
				v-7.2l-2.4,0.7v7.3c-1,0.3-1.9,0.6-2.8,0.9v-7.3l-2.4,0.7v7.4c-1.8,0.6-3,0.9-3,0.9c-0.2-0.3-0.6-11.7-0.3-12
				c0.3-0.2,17.6-6.3,17.9-7L590.9,61.2L590.9,61.2z"/>
			<path class="st14" d="M392.4,297.4c0.5,0,2.6,10.2,3,11.9c0.3,1.7-7.1,3.6-7.1,3.6c1.1,0,2.4-0.1,3.7-0.3
				c5.8-0.7,6.9-3.1,6.6-4.6c-0.2-1-1.6-7.7-2.8-12.9c-0.7-3-1.3-5.4-1.6-5.9c-0.8-1.3-10.5-1.1-9.2-0.6c1.3,0.4,5.8,0.4,6.8,1.1
				c1,0.7,1.2,4.5,1,5.2c-0.2,0.5-2.8,1.5-5.8,1.9C387,296.7,391.8,297.3,392.4,297.4L392.4,297.4z"/>
			<polygon class="st0" points="366,439.4 381.4,439.4 381.4,454.6 366,454.6 			"/>
			<polygon class="st23" points="344.9,447.4 355.6,447.4 355.6,458 344.9,458 			"/>
			<polygon class="st23" points="363.9,464.8 371.6,464.8 371.6,472.4 363.9,472.4 			"/>
			<polygon class="st23" points="394.5,444.3 403.7,444.3 403.7,453.3 394.5,453.3 			"/>
			<polygon class="st0" points="423.2,440.4 429.7,440.4 429.7,446.8 423.2,446.8 			"/>
			<polygon class="st0" points="344.9,475.9 352.6,475.9 352.6,483.5 344.9,483.5 			"/>
			<polygon class="st0" points="224.9,439.4 209.5,439.4 209.5,454.6 224.9,454.6 			"/>
			<polygon class="st23" points="245.9,447.4 235.3,447.4 235.3,458 245.9,458 			"/>
			<polygon class="st23" points="227,464.8 219.3,464.8 219.3,472.4 227,472.4 			"/>
			<polygon class="st23" points="196.3,444.3 187.1,444.3 187.1,453.3 196.3,453.3 			"/>
			<polygon class="st0" points="167.6,440.4 161.1,440.4 161.1,446.8 167.6,446.8 			"/>
			<polygon class="st0" points="245.9,475.9 238.2,475.9 238.2,483.5 245.9,483.5 			"/>
			<path class="st27" d="M223.2,356.8c0,2-1.1,3-3.4,3h-9.3v6.4H207v-16.7h12.8c2.3,0,3.4,1,3.4,2.9V356.8L223.2,356.8z
				 M219.9,355.5v-1.8c0-0.9-0.3-1.3-1-1.3h-8.4v4.5h8.4C219.6,356.9,219.9,356.4,219.9,355.5L219.9,355.5z M246.6,366.2h-4.5
				l-5.7-6.3h-3.3v6.3h-3.5v-16.7h13.1c2.3,0,3.4,1,3.4,2.9v4.6c0,1.4-0.6,2.4-1.8,2.9h-3.7L246.6,366.2L246.6,366.2z M242.8,355.8
				v-2c0-0.9-0.3-1.3-1-1.3h-8.6v4.7h8.6C242.5,357.1,242.8,356.6,242.8,355.8L242.8,355.8z M272.7,362.3c0,1.6-0.3,2.6-0.8,3.1
				c-0.5,0.5-1.5,0.8-3,0.8h-11.2c-1.4,0-2.4-0.3-3-0.8c-0.5-0.5-0.8-1.6-0.8-3.1v-8.8c0-1.6,0.3-2.6,0.8-3.1c0.5-0.5,1.5-0.8,3-0.8
				h11.2c1.4,0,2.4,0.3,3,0.8c0.5,0.5,0.8,1.6,0.8,3.1V362.3z M269.2,363v-10.5h-11.7V363H269.2z M313.3,366.2H298v-16.7h3.5V363
				h11.8V366.2z M336.5,366.2h-3.4l-2-3.7h-9.9l-1.9,3.7h-3.5l8.6-16.7h3.4L336.5,366.2z M329.5,359.5l-3.4-6.8l-3.4,6.8H329.5z
				 M358.4,362.9c0,2.2-1.5,3.3-4.5,3.3h-11.6v-16.7h12.5c2.3,0,3.4,1.1,3.4,3.3v2c0,1.7-0.9,2.6-2.6,2.8c1.8,0.3,2.8,1.3,2.8,3.2
				V362.9L358.4,362.9z M355,354.9v-1.8c0-0.6-0.6-0.9-1.7-0.9h-7.7v3.9h7.7C354.5,356.1,355,355.7,355,354.9z M355.1,362v-1.5
				c0-0.6-0.1-1.1-0.4-1.2c-0.3-0.2-0.7-0.3-1.3-0.3h-7.7v4.2h7.7c0.6,0,1.1-0.1,1.3-0.3C355,362.7,355.1,362.4,355.1,362L355.1,362
				z M383.8,362.3c0,1.6-0.3,2.6-0.9,3.1c-0.6,0.5-1.6,0.8-3.1,0.8h-9.5c-1.6,0-2.7-0.3-3.2-0.9c-0.5-0.6-0.8-1.9-0.8-3.9h3.5v1.6
				h10.6v-3.8h-9.9c-1.5,0-2.5-0.3-3.1-0.8c-0.6-0.5-0.8-1.6-0.8-3.2v-1.8c0-1.6,0.3-2.6,0.8-3.1c0.6-0.5,1.6-0.8,3.1-0.8h12.8v2.9
				H370v3.6h9.9c1.5,0,2.5,0.3,3.1,0.8c0.6,0.5,0.9,1.6,0.9,3.1L383.8,362.3L383.8,362.3z"/>
			<path class="st28" d="M171.2,402.1c-4,4.2-8.1,8.5-12.2,12.7c-4.1,4.2-8.3,8.5-12.5,12.7c-14,0-27.9,0-41.8,0
				c-6.2,0-12.4,0-18.5,0c4-8.5,8-17,12.1-25.5c4-8.5,8-17,12.1-25.5c17.8,0,35.6,0,53.4,0c1.1,4.3,2.3,8.5,3.4,12.8
				C168.3,393.6,169.8,397.9,171.2,402.1L171.2,402.1z M491,427.5c4.5,0,9,0,13.5,0c-1.8-3.8-3.6-7.6-5.3-11.4
				c-10.9,0-21.8,0-32.7,0c-5.9,0-11.8,0-17.7,0c-1.1-2.9-2.1-5.9-3.2-8.8c10.4,0,20.8,0,31.2,0c2.4-3.5,4.7-6.9,7.1-10.4
				c-14,0-28,0-41.9,0c-1-3-2.1-6-3.2-9c7.5,0,15.1,0,22.7,0c4.7,0,9.4,0,14.1,0c4,0,8.1,0,12.2,0c-1.8-3.8-3.6-7.6-5.4-11.4
				c-8.5,0-17.1,0-25.6,0c-12.7,0-25.4,0-38.1,0c2.6,8.5,5.4,17,8,25.5c2.6,8.5,5.3,17,7.9,25.5c12.1,0,24.2,0,36.3,0
				C477.7,427.5,484.3,427.5,491,427.5L491,427.5z M152.6,402.1c-0.7-2.4-1.4-4.7-2-7.1c-0.6-2.4-1.2-4.7-1.7-7.1
				c-9.1,0-18.2,0-27.4,0c-2,4.7-4.1,9.4-6.1,14.1c-2,4.7-4.1,9.4-6.1,14.1c9.8,0,19.5,0,29.3,0c2.4-2.3,4.7-4.7,7.1-7
				C147.9,406.8,150.2,404.4,152.6,402.1L152.6,402.1z M247.9,427.5c-6.1,0-12.1,0-18.2,0c0.3-2.4,0.7-4.9,1.1-7.3
				c0.4-2.4,0.7-4.9,1.1-7.3c-11.9,0-23.7,0-35.5,0c-0.6,2.4-1.1,4.9-1.7,7.3c-0.6,2.4-1.1,4.9-1.7,7.3c-6.1,0-12.1,0-18.2,0
				c1.8-6.6,3.6-13.2,5.4-19.8c1.8-6.6,3.6-13.2,5.4-19.8c5.2-3.8,10.3-7.6,15.3-11.4c13.4,0,26.9,0,40.4,0
				c3.5,3.8,7.1,7.6,10.9,11.4c-0.8,6.6-1.5,13.2-2.2,19.8C249.3,414.3,248.6,420.9,247.9,427.5L247.9,427.5z M233.6,401.7
				c0.3-2.3,0.7-4.6,1-6.9c0.4-2.3,0.7-4.6,1.1-6.9c-11.1,0-22.3,0-33.4,0c-0.5,2.3-1.1,4.6-1.6,6.9c-0.5,2.3-1,4.6-1.6,6.9
				C210.5,401.7,222,401.7,233.6,401.7L233.6,401.7z M335.4,427.5c-4.6,0-9.2,0-13.8,0c-7.4-5-14.5-9.9-21.5-14.9
				c-6.8-4.9-13.5-9.9-20-14.9c-0.2,5-0.4,9.9-0.6,14.9c-0.2,5-0.4,9.9-0.5,14.9c-6.1,0-12.2,0-18.2,0c0.6-8.5,1.3-17,2-25.5
				c0.7-8.5,1.3-17,2-25.5c3.8,0,7.7,0,11.5,0c6.2,5.1,12.6,10.2,19.2,15.2c6.7,5.1,13.7,10.1,20.7,15.2c-0.2-5.1-0.5-10.1-0.7-15.2
				c-0.2-5.1-0.5-10.1-0.7-15.2c5.3,0,10.7,0,16.1,0c0.8,8.5,1.6,17,2.3,25.5C333.9,410.5,334.6,419,335.4,427.5L335.4,427.5z
				 M411.3,376.5c-2.9,3.8-5.8,7.6-8.8,11.4c-5.4,0-10.8,0-16.3,0c1.5,6.6,2.9,13.2,4.4,19.8c1.5,6.6,2.9,13.2,4.4,19.8
				c-6.1,0-12.1,0-18.2,0c-1.2-6.6-2.4-13.2-3.6-19.8c-1.2-6.6-2.4-13.2-3.6-19.8c-5.5,0-10.9,0-16.3,0c-4.6-3.8-9-7.6-13.5-11.4
				C363.7,376.5,387.5,376.5,411.3,376.5L411.3,376.5z"/>
			<polygon class="st29" points="295.5,532.4 201.4,498.4 192.2,479.1 132.1,457.2 133.4,454.7 195.9,476.5 203.1,490.7 
				295.5,524.7 387.8,490.7 395.1,476.5 457.6,454.7 458.8,457.2 398.8,479.1 389.5,498.4 			"/>
			<path class="st12" d="M529.1,100.9c-2.6,5.1-10.3,11.8-10.3,11.8c-0.3,0.5-1.1,1.2-2.7,2.1c-3.9,2.2-8,3.4-8.6,3.8
				c-0.6,0.4,4.8,0.4,9.1-1.1c4.3-1.4,10.5-4.5,15.8-10.7c0.3-0.4,0.6-0.8,1-1.2c0.5-1.6,0.9-3.5,0.9-5.6c0.1-5.6-1.4-8.4-1.4-8.4
				C532.1,95.4,530.7,98.5,529.1,100.9L529.1,100.9z"/>
			<path class="st12" d="M76.2,100.9c2.6,5.1,10.3,11.8,10.3,11.8c0.3,0.5,1.1,1.2,2.7,2.1c3.9,2.2,8,3.4,8.6,3.8
				c0.6,0.4-4.8,0.4-9.1-1.1c-4.3-1.4-10.5-4.5-15.8-10.7c-0.3-0.4-0.6-0.8-1-1.2c-0.5-1.6-0.9-3.5-0.9-5.6
				c-0.1-5.6,1.4-8.4,1.4-8.4C73.2,95.4,74.6,98.5,76.2,100.9L76.2,100.9z"/>
			<path class="st12" d="M258.7,210.3l-16.1-14c1.7,3.1,4.4,7.7,7.6,12.6l25.2,21c-2.9-3-6.1-6.3-9-9.7
				C261.9,215.1,259.7,212,258.7,210.3L258.7,210.3z"/>
			<path class="st12" d="M311.4,204.2c-7.7,5.7-9.2,6.5-9.2,6.5s6.7,1.4,8.9,0.6c2.2-0.8,6.9-3.5,7.9-4.9c0.9-1.4,4-8.6,4-8.6
				L311.4,204.2L311.4,204.2z"/>
			<path class="st4" d="M256.9,184.1l0.3,3l4.8,13.6c0,0-22.2-12.5-31.2-24.9l0,0c0,0-6.7-7.8-9.4-17.6c-2.7-9.7-1.3-12-1.3-12
				s2-1,7.8-1.2c5.8-0.1,8,1.1,8,1.1s-6.2,1.9-7.8,2.7c-1.5,0.7-1.5,0.7-1.5,0.7s-0.8,3.8,3.4,13.6c1.4,2.4,3.1,4.9,5.2,7.5
				c6.9,8.2,13.4,12.7,14.3,13.2v0c-0.1-0.1-0.2-0.2-0.3-0.5c-1-1.5-4-6.2-5.7-11.4c-2-6.3-2.1-10.2-2.1-10.2s4.6,7.8,6.9,10.5
				c0.4,0.4,0.7,1.1,0.9,2C249.2,174.3,256.9,184.1,256.9,184.1z"/>
			<path class="st12" d="M291.2,211.2c-2.4-1.7-10.7-7.1-18.7-15.4c0,0-8.6-6.2-19-18.8c-10.4-12.6-12.2-15.3-12.2-15.3
				s9.6,19.3,24.1,35.1c14.5,15.8,21.8,19.5,23.7,20.1c1.3,0.4,8.8-0.6,13.1-1.3C302.2,215.8,293,212.5,291.2,211.2L291.2,211.2z"/>
			<path class="st23" d="M146.3,249.2c2.8,3.2,7.9,4.5,10.7,7.6l-9.5-1.7c6.3,9.8,24.6,16.8,35.4,16c2.9-0.2,21.6-9.8,24.4-13.6
				c2.1-2.9,3.9-9.3,5.6-12.4c0.8-2.1,1.6-4.6,1.9-7c0.6-5.1-0.4-6.7,0.1-6.3c0.5,0.4,3.6,3.2,2.9,10.6c0.5-0.3,1-0.7,1.5-1.3l0,0
				c0.2-0.2,7.7-8.1,6.4-19.5c-1.3-11.6-1.8-11.2-1.8-11.2s-0.2,7-2.3,10.8c-2.2,3.8-8,4.8-11,5.2c2,9.4-8.9,25.7-25.9,28.8
				c-1.6,0.3-2.3,3-4,3c-13.3-0.2-26.7-4.7-26.7-4.7L146.3,249.2L146.3,249.2z"/>
			<path class="st0" d="M207.8,238.7c-4.2,12.2-18.2,21.1-34.9,21.1c-20,0-36.2-12.8-36.2-28.7c0-5.1,1.7-9.8,4.6-13.9
				c0.4,1.4,1,3,1.9,4.7l0,0c-0.4,1.6-0.6,3.3-0.6,5.1c0,14.9,14.5,27,32.3,27c17.6,0,31.8-11.7,32.3-26.3l0,0
				C207.2,227.6,209.9,231.2,207.8,238.7L207.8,238.7z"/>
			<path class="st23" d="M461.7,249.2c-2.8,3.2-7.9,4.5-10.7,7.6l9.5-1.7c-6.3,9.8-24.6,16.8-35.4,16c-2.9-0.2-21.6-9.8-24.4-13.6
				c-2.1-2.9-3.9-9.3-5.6-12.4c-0.8-2.1-1.6-4.6-1.9-7c-0.6-5.1,0.4-6.7-0.1-6.3c-0.5,0.4-3.6,3.2-2.9,10.6c-0.5-0.3-1-0.7-1.5-1.3
				l0,0c-0.2-0.2-7.7-8.1-6.4-19.5c1.3-11.6,1.8-11.2,1.8-11.2s0.2,7,2.3,10.8c2.2,3.8,8,4.8,11,5.2c-2,9.4,8.9,25.7,25.9,28.8
				c1.6,0.3,2.3,3,4,3c13.3-0.2,26.7-4.7,26.7-4.7L461.7,249.2L461.7,249.2z"/>
			<path class="st0" d="M400.1,238.7c4.2,12.2,18.2,21.1,34.9,21.1c20,0,36.2-12.8,36.2-28.7c0-5.1-1.7-9.8-4.6-13.9
				c-0.4,1.4-1,3-1.9,4.7l0,0c0.4,1.6,0.6,3.3,0.6,5.1c0,14.9-14.5,27-32.3,27c-17.6,0-31.8-11.7-32.3-26.3l0,0
				C400.7,227.6,398,231.2,400.1,238.7L400.1,238.7z"/>
			<g>
				<path class="st5" d="M297.3,323.8c0.3,0,0.5,0.2,0.5,0.5c0,0.3-0.2,0.5-0.5,0.5s-0.5-0.2-0.5-0.5
					C296.7,324,297,323.8,297.3,323.8z"/>
				<path class="st5" d="M307.2,323.8c-0.3,0-0.5,0.2-0.5,0.5c0,0.3,0.2,0.5,0.5,0.5c0.3,0,0.5-0.2,0.5-0.5
					C307.7,324,307.5,323.8,307.2,323.8z"/>
				<g>
					<path class="st4" d="M291.4,330.2v7.3h-3v-4.9h-5v-3h5.6c-0.5-0.5-0.7-1.1-0.7-1.8c0-0.8,0.4-1.6,1-2.1v-2.4h-5v-3h5V317h4.8
						c0.5-0.7,1.3-1.2,2.2-1.2c1.4,0,2.6,1.2,2.6,2.6c0,1.4-1.2,2.6-2.6,2.6c-0.8,0-1.5-0.4-2-0.9h-1.9v5.5c0.7,0.5,1.1,1.3,1.1,2.1
						C293.4,328.9,292.6,329.9,291.4,330.2L291.4,330.2z M313,330.2c-1.1-0.3-2-1.3-2-2.5c0-0.9,0.4-1.6,1.1-2.1V320h-1.9
						c-0.5,0.6-1.2,0.9-2,0.9c-1.4,0-2.6-1.2-2.6-2.6c0-1.4,1.2-2.6,2.6-2.6c0.9,0,1.7,0.5,2.2,1.2h4.8v3.2h5v3h-5v2.4
						c0.6,0.5,1,1.2,1,2.1c0,0.7-0.3,1.3-0.7,1.8h5.6v3h-5v4.9h-3V330.2L313,330.2z M305.7,326.4c-0.6-0.5-1-1.2-1-2.1
						c0-1.4,1.2-2.6,2.6-2.6c1.4,0,2.6,1.2,2.6,2.6c0,0.9-0.4,1.6-1.1,2.1v4h3.6v7.9h-3v-4.9h-3.6
						C305.7,333.4,305.7,326.4,305.7,326.4z M298.8,326.4v7h-3.6v4.9h-3v-7.9h3.6v-4c-0.7-0.5-1.1-1.3-1.1-2.1
						c0-1.4,1.2-2.6,2.6-2.6s2.6,1.2,2.6,2.6C299.8,325.1,299.4,325.9,298.8,326.4L298.8,326.4z"/>
					<path class="st4" d="M291.3,330.1v7.2h-2.7v-4.9h-5v-2.7h5.8c-0.6-0.4-1-1.2-1-2c0-0.8,0.4-1.5,1-2v-2.6h-5v-2.7h5v-3.2h4.7
						c0.4-0.7,1.2-1.2,2.1-1.2c1.3,0,2.4,1.1,2.4,2.4c0,1.3-1.1,2.4-2.4,2.4c-0.8,0-1.5-0.4-1.9-0.9h-2.2v5.8c0.7,0.4,1.1,1.2,1.1,2
						C293.2,328.9,292.4,329.8,291.3,330.1L291.3,330.1z M313.2,330.1c-1.1-0.2-2-1.2-2-2.4c0-0.8,0.4-1.6,1.1-2v-5.8h-2.2
						c-0.4,0.6-1.2,0.9-1.9,0.9c-1.3,0-2.4-1.1-2.4-2.4c0-1.3,1.1-2.4,2.4-2.4c0.9,0,1.7,0.5,2.1,1.2h4.7v3.2h5v2.7h-5v2.6
						c0.6,0.4,1,1.2,1,2c0,0.8-0.4,1.5-1,2h5.8v2.7h-5v4.9h-2.7L313.2,330.1L313.2,330.1z M305.8,326.3c-0.6-0.4-1-1.2-1-2
						c0-1.3,1.1-2.4,2.4-2.4c1.3,0,2.4,1.1,2.4,2.4c0,0.8-0.4,1.6-1.1,2v4.2h3.6v7.5h-2.7v-4.9h-3.6
						C305.8,333.2,305.8,326.3,305.8,326.3z M298.6,326.3v6.9h-3.6v4.9h-2.7v-7.5h3.6v-4.2c-0.7-0.4-1.1-1.2-1.1-2
						c0-1.3,1.1-2.4,2.4-2.4s2.4,1.1,2.4,2.4C299.7,325.1,299.3,325.8,298.6,326.3z"/>
					<path class="st12" d="M291.1,329.9v7.2h-2.4v-4.9h-5v-2.4h6.3c-0.9-0.3-1.5-1.1-1.5-2.1c0-0.8,0.4-1.5,1-1.9v-2.9h-5v-2.4h5
						v-3.2h4.6c0.4-0.7,1.1-1.2,2-1.2c1.2,0,2.2,1,2.2,2.2s-1,2.2-2.2,2.2c-0.7,0-1.4-0.4-1.8-0.9H292v6c0.7,0.4,1.1,1.1,1.1,1.9
						C293.1,328.8,292.2,329.8,291.1,329.9L291.1,329.9z M313.3,329.9c-1.1-0.1-2-1.1-2-2.2c0-0.8,0.4-1.5,1.1-1.9v-6h-2.4
						c-0.4,0.6-1.1,0.9-1.8,0.9c-1.2,0-2.2-1-2.2-2.2c0-1.2,1-2.2,2.2-2.2c0.8,0,1.6,0.5,2,1.2h4.6v3.2h5v2.4h-5v2.9
						c0.6,0.4,1,1.1,1,1.9c0,1-0.6,1.8-1.5,2.1h6.3v2.4h-5v4.9h-2.4L313.3,329.9L313.3,329.9z M306,326.2c-0.6-0.4-1-1.1-1-1.9
						c0-1.2,1-2.2,2.2-2.2c1.2,0,2.2,1,2.2,2.2c0,0.8-0.4,1.5-1.1,1.9v4.5h3.6v7.2h-2.4V333H306C306,333,306,326.2,306,326.2z
						 M298.5,326.2v6.9h-3.6v4.9h-2.4v-7.2h3.6v-4.5c-0.7-0.4-1.1-1.1-1.1-1.9c0-1.2,1-2.2,2.2-2.2c1.2,0,2.2,1,2.2,2.2
						C299.5,325.1,299.1,325.8,298.5,326.2z"/>
					<path class="st25" d="M315.5,332v4.9h-2v-7h7v2C320.5,332,315.5,332,315.5,332z M306.1,326.1c-0.6-0.4-1-1.1-1-1.8
						c0-1.2,0.9-2.1,2.1-2.1s2.1,0.9,2.1,2.1c0,0.8-0.4,1.5-1.1,1.8v4.7h3.6v6.9h-2v-4.9h-3.6L306.1,326.1L306.1,326.1z
						 M312.6,325.8v-6.3H310c-0.4,0.6-1,0.9-1.7,0.9c-1.2,0-2.1-0.9-2.1-2.1c0-1.2,0.9-2.1,2.1-2.1c0.8,0,1.5,0.5,1.9,1.2h4.6v3.2h5
						v2h-5v3.1c0.6,0.4,1,1.1,1,1.8c0,1.2-0.9,2.1-2.1,2.1c-1.2,0-2.1-0.9-2.1-2.1C311.5,326.9,312,326.2,312.6,325.8L312.6,325.8z
						 M298.3,326.1v6.8h-3.6v4.9h-2v-6.9h3.6v-4.7c-0.7-0.4-1.1-1.1-1.1-1.8c0-1.2,0.9-2.1,2.1-2.1s2.1,0.9,2.1,2.1
						C299.3,325,298.9,325.7,298.3,326.1L298.3,326.1z M291.8,325.8c0.7,0.4,1.1,1.1,1.1,1.8c0,1.2-0.9,2.1-2.1,2.1
						c-1.2,0-2.1-0.9-2.1-2.1c0-0.7,0.4-1.4,1-1.8v-3.1h-5v-2h5v-3.2h4.6c0.3-0.7,1.1-1.2,1.9-1.2c1.2,0,2.1,0.9,2.1,2.1
						c0,1.2-0.9,2.1-2.1,2.1c-0.7,0-1.4-0.4-1.7-0.9h-2.7L291.8,325.8L291.8,325.8z M288.9,332h-5v-2h7v7h-2
						C288.9,337,288.9,332,288.9,332z"/>
					<path class="st26" d="M315.4,331.8v4.9h-1.7v-6.6h6.7v1.7C320.4,331.8,315.4,331.8,315.4,331.8z M306.3,326c-0.6-0.3-1-1-1-1.7
						c0-1.1,0.9-1.9,1.9-1.9c1.1,0,1.9,0.9,1.9,1.9c0,0.7-0.4,1.4-1.1,1.7v5h3.6v6.6h-1.7v-4.9h-3.6L306.3,326L306.3,326z
						 M312.8,325.9v-6.6h-2.9c-0.3,0.6-1,0.9-1.6,0.9c-1.1,0-1.9-0.9-1.9-1.9s0.9-1.9,1.9-1.9c0.8,0,1.5,0.5,1.8,1.2h4.5v3.2h5v1.7
						h-5v3.4c0.6,0.3,1,1,1,1.7c0,1.1-0.9,1.9-1.9,1.9s-1.9-0.9-1.9-1.9C311.7,326.9,312.1,326.3,312.8,325.9z M298.1,326v6.7h-3.6
						v4.9h-1.7V331h3.6v-5c-0.7-0.3-1.1-1-1.1-1.7c0-1.1,0.9-1.9,1.9-1.9c1.1,0,1.9,0.9,1.9,1.9C299.2,325,298.8,325.7,298.1,326z
						 M291.6,325.9c0.7,0.3,1.1,1,1.1,1.7c0,1.1-0.9,1.9-1.9,1.9c-1.1,0-1.9-0.9-1.9-1.9c0-0.7,0.4-1.4,1-1.7v-3.4h-5v-1.7h5v-3.2
						h4.5c0.3-0.7,1-1.2,1.8-1.2c1.1,0,1.9,0.9,1.9,1.9c0,1.1-0.9,1.9-1.9,1.9c-0.7,0-1.3-0.4-1.6-0.9h-2.9
						C291.6,319.4,291.6,325.9,291.6,325.9z M289.1,331.8h-5v-1.7h6.7v6.6h-1.7C289.1,336.8,289.1,331.8,289.1,331.8z"/>
				</g>
				<path class="st5" d="M313.8,330.3v6.3h1.4v-4.9h5v-1.4h-2.5h-2.5L313.8,330.3L313.8,330.3z M306.5,325.9v5.3v1.4h1.4h2.2v4.9
					h1.4v-4.9v-1v-0.4h-3.6v-5.2c0.6-0.3,1.1-0.9,1.1-1.6c0-1-0.8-1.8-1.8-1.8s-1.8,0.8-1.8,1.8C305.4,325,305.9,325.6,306.5,325.9
					L306.5,325.9z M313,326.1c-0.6,0.3-1.1,0.9-1.1,1.6c0,1,0.8,1.8,1.8,1.8s1.8-0.8,1.8-1.8c0-0.7-0.4-1.3-1-1.6v-3.7h5v-1.4h-5
					v-3.2H314h-1h-3.1c-0.2-0.7-0.9-1.2-1.7-1.2c-1,0-1.8,0.8-1.8,1.8c0,1,0.8,1.8,1.8,1.8c0.7,0,1.3-0.4,1.6-0.9h3.2L313,326.1
					L313,326.1z M298,325.9v5.3v1.4h-1.4h-2.2v4.9H293v-4.9v-1v-0.4h3.6v-5.2c-0.6-0.3-1.1-0.9-1.1-1.6c0-1,0.8-1.8,1.8-1.8
					c1,0,1.8,0.8,1.8,1.8C299,325,298.6,325.6,298,325.9L298,325.9z M291.5,326.1c0.6,0.3,1.1,0.9,1.1,1.6c0,1-0.8,1.8-1.8,1.8
					s-1.8-0.8-1.8-1.8c0-0.7,0.4-1.3,1-1.6v-3.7h-5v-1.4h5v-3.2h0.4h1h3.1c0.2-0.7,0.9-1.2,1.7-1.2c1,0,1.8,0.8,1.8,1.8
					c0,1-0.8,1.8-1.8,1.8c-0.7,0-1.3-0.4-1.6-0.9h-3.2L291.5,326.1L291.5,326.1z M290.6,330.3v6.3h-1.4v-4.9h-5v-1.4h2.5h2.5
					L290.6,330.3L290.6,330.3z"/>
			</g>
			<path class="st17" d="M302.2,311.8c0,0-11.2,0.2-13.6,0.9c-2.4,0.7-5.8,5.7-6.1,12.3c-0.3,6.6,1,10,2.9,11.8
				c3.8,3.7,29.8,3.7,33.5,0c1.9-1.9,3.2-5.2,2.9-11.8c-0.3-6.6-3.7-11.6-6.1-12.3C313.4,311.9,302.2,311.8,302.2,311.8L302.2,311.8
				z M302.2,314.7c0,0-9.3,0.1-11.3,0.7c-2,0.6-4.9,4.5-5.1,9.7c-0.2,5.2,0.8,7.9,2.4,9.3c3.1,2.9,24.7,2.9,27.9,0
				c1.6-1.5,2.6-4.1,2.4-9.3c-0.2-5.2-3.1-9.2-5.1-9.7C311.5,314.8,302.2,314.7,302.2,314.7L302.2,314.7z"/>
			<path class="st8" d="M302.2,311.8c0,0-11.2,0.2-13.6,0.8c-2.4,0.7-5.8,5.3-6.1,11.3s1,9.2,2.9,10.9c3.8,3.4,29.8,3.4,33.5,0
				c1.9-1.7,3.2-4.8,2.9-10.9c-0.3-6-3.7-10.7-6.1-11.3C313.4,311.9,302.2,311.8,302.2,311.8L302.2,311.8z M302.2,314.4
				c0,0-9.3,0.1-11.3,0.6c-2,0.5-4.9,4.2-5.1,8.9s0.8,7.2,2.4,8.6c3.1,2.7,24.7,2.7,27.9,0c1.6-1.4,2.6-3.8,2.4-8.6
				c-0.2-4.8-3.1-8.4-5.1-8.9C311.5,314.6,302.2,314.4,302.2,314.4L302.2,314.4z"/>
		</g>
	</g>
	<path class="st27" d="M320.7,453.5L320.7,453.5c0-0.6-0.2-1.2-0.6-1.6c0,0,0,0-0.1-0.1l-0.1-0.1l-0.1-0.1c0,0,0,0-0.1,0l-23-13.3
		c-0.1,0-0.1-0.1-0.2-0.1c-0.3-0.2-0.7-0.2-1.1-0.2c-0.2,0-0.4,0.1-0.6,0.1c-0.1,0-0.3,0.1-0.4,0.2l-23,13.3c0,0,0,0-0.1,0
		c0,0,0,0-0.1,0l0,0l-0.1,0.1c0,0-0.1,0-0.1,0.1c-0.1,0-0.1,0.1-0.2,0.2l0,0c-0.3,0.4-0.5,0.9-0.5,1.4l0,0c0,0,0,0,0,0.1V480
		c0,0.8,0.5,1.5,1.1,1.9l23,13.3c0,0,0,0,0.1,0c0,0,0.1,0,0.1,0.1h0.1c0.1,0,0.1,0,0.2,0.1h0.1c0.1,0,0.1,0,0.2,0h0.1
		c0.1,0,0.2,0,0.3,0s0.2,0,0.3,0h0.1c0.1,0,0.1,0,0.2,0h0.1c0.1,0,0.1,0,0.2-0.1h0.1c0,0,0.1,0,0.1-0.1c0,0,0,0,0.1,0l23-13.3
		c0.7-0.4,1.1-1.1,1.1-1.9L320.7,453.5L320.7,453.5z M279.3,452.6l15.7-9c0.3-0.2,0.7-0.2,1,0l15.7,9c0.7,0.4,0.7,1.4,0,1.7l-15.7,9
		c-0.3,0.2-0.7,0.2-1,0l-15.7-9C278.7,453.9,278.7,453,279.3,452.6z M292.8,487c0,0.8-0.8,1.3-1.5,0.9l-15.6-9
		c-0.3-0.2-0.5-0.5-0.5-0.9v-18.1c0-0.8,0.8-1.3,1.5-0.9l15.6,9c0.3,0.2,0.5,0.5,0.5,0.9V487z M315.9,477.9c0,0.4-0.2,0.7-0.5,0.9
		l-15.6,9c-0.7,0.4-1.5-0.1-1.5-0.9v-18.1c0-0.4,0.2-0.7,0.5-0.9l15.6-9c0.7-0.4,1.5,0.1,1.5,0.9V477.9z"/>
</g>
</svg>
